<svg width="264" height="46" viewBox="0 0 264 46" fill="none" xmlns="http://www.w3.org/2000/svg">
<path d="M13.9228 29.1164C11.8498 29.1164 9.97987 28.8182 8.32006 28.236C6.66025 27.6538 5.18253 26.7663 3.9009 25.5665C2.57726 24.4447 1.59678 23.0105 0.959468 21.271C0.315154 19.5245 0 17.501 0 15.1794C0 14.0931 0.084041 13.0494 0.24512 12.0554C0.406198 11.0614 0.665325 10.1242 1.0295 9.25807C1.35166 8.42738 1.74385 7.6464 2.21308 6.92221C2.67531 6.19802 3.23558 5.53063 3.87989 4.91295C4.48919 4.33786 5.16852 3.81957 5.91789 3.36517C6.66725 2.91078 7.47265 2.52739 8.33407 2.2008C9.15347 1.9097 10.0289 1.6896 10.9603 1.52631C11.8918 1.36301 12.8933 1.28491 13.9648 1.28491C14.9663 1.28491 15.9398 1.37011 16.8852 1.53341C17.8307 1.6967 18.7341 1.9239 19.5956 2.215C20.415 2.54159 21.1923 2.93208 21.9277 3.38647C22.6561 3.84087 23.3494 4.35916 23.9867 4.94135C24.554 5.55903 25.0862 6.22642 25.5625 6.95771C26.0457 7.68189 26.4799 8.46288 26.8721 9.30067C27.1943 10.174 27.4394 11.104 27.6215 12.1051C27.7966 13.1062 27.8876 14.1428 27.8876 15.2291C27.8876 17.5507 27.5514 19.5813 26.8861 21.3136C26.2208 23.0531 25.2473 24.4802 23.9587 25.602C22.635 26.7947 21.1433 27.6822 19.4765 28.2573C17.8167 28.8324 15.9608 29.1235 13.9228 29.1164ZM11.7237 31.0689V37.3238L41.5863 37.3665L41.5723 45.5242L2.31813 45.4674L2.33914 31.0618L11.7237 31.076V31.0689ZM13.9368 20.1493C14.1539 20.1493 14.392 20.1351 14.6582 20.0925C14.9243 20.057 15.2184 19.986 15.5406 19.8795C15.7927 19.844 16.0518 19.7517 16.318 19.6097C16.5841 19.4677 16.8432 19.2831 17.0953 19.0701C17.3125 18.9281 17.5155 18.7151 17.7116 18.4453C17.9077 18.1755 18.0968 17.8773 18.2789 17.5507C18.419 17.2596 18.538 16.9259 18.6291 16.5425C18.7201 16.1591 18.7622 15.7189 18.7622 15.2078C18.7622 14.7747 18.7201 14.3629 18.6291 13.9866C18.538 13.6032 18.426 13.2553 18.2789 12.9287C18.0968 12.6376 17.9147 12.3678 17.7186 12.1122C17.5226 11.8566 17.3195 11.6223 17.1023 11.4022C16.8502 11.2602 16.5911 11.1111 16.325 10.9691C16.0588 10.8271 15.7997 10.6993 15.5476 10.5857C15.2254 10.5147 14.9313 10.4508 14.6652 10.394C14.399 10.3372 14.1539 10.3088 13.9438 10.3088C13.6567 10.3088 13.3695 10.3372 13.0824 10.3869C12.7952 10.4437 12.5291 10.5076 12.277 10.5786C11.9548 10.6851 11.6677 10.8129 11.4156 10.9549C11.1634 11.0969 10.9323 11.246 10.7152 11.388C10.4631 11.6081 10.239 11.8424 10.0429 12.0909C9.84681 12.3465 9.69273 12.6163 9.58768 12.9074C9.40559 13.234 9.27953 13.589 9.20949 13.9653C9.13946 14.3487 9.10444 14.7534 9.09744 15.1865C9.09744 15.6976 9.13246 16.1378 9.20249 16.5212C9.27253 16.9046 9.39859 17.2383 9.57367 17.5294C9.67872 17.856 9.8328 18.1542 10.0289 18.424C10.225 18.6938 10.4491 18.9068 10.7012 19.0488C10.9183 19.2689 11.1494 19.4464 11.3946 19.5955C11.6467 19.7446 11.9338 19.8298 12.249 19.8653C12.5011 19.9718 12.7672 20.0499 13.0544 20.0854C13.3415 20.1209 13.6287 20.1422 13.9088 20.1422L13.9368 20.1493ZM47.147 10.465L47.133 19.8724C47.028 19.8724 46.9089 19.8795 46.7828 19.9008C46.6568 19.9221 46.5237 19.9292 46.3836 19.9292C46.2436 19.9292 46.1035 19.9292 45.9844 19.9292C45.8584 19.9292 45.7253 19.9292 45.5852 19.9292C45.2631 19.9647 44.9409 20.0002 44.6188 20.0357C44.2966 20.0712 43.9955 20.1067 43.7083 20.1422C43.5262 20.1777 43.3582 20.2061 43.1971 20.2203C43.036 20.2416 42.8819 20.2629 42.7419 20.2984C42.6018 20.3339 42.4547 20.3623 42.3147 20.3765C42.1746 20.3978 42.0485 20.4049 41.9365 20.4049C41.7194 20.4759 41.5513 20.5398 41.4252 20.5966C41.2992 20.6534 41.1871 20.696 41.0751 20.7315L41.061 32.4178L31.6765 32.4036L31.7185 1.8529L41.1031 1.8671L41.0891 11.7075C41.3762 11.53 41.6984 11.3667 42.0555 11.2176C42.4127 11.0756 42.8259 10.9265 43.2881 10.7845C43.7504 10.678 44.3106 10.5928 44.9479 10.5431C45.5923 10.4934 46.3206 10.465 47.147 10.465Z" fill="white"/>
<path d="M73.8087 2.35002V7.07854C73.6896 8.45591 73.4585 9.77649 73.1014 11.0474C72.7442 12.3182 72.296 13.5465 71.7567 14.7393C71.5746 15.0659 71.4065 15.3712 71.2455 15.6623C71.0844 15.9534 70.9303 16.2587 70.7902 16.5853C71.0073 16.7699 71.2384 16.9474 71.4836 17.132C71.7357 17.3165 71.9808 17.494 72.2329 17.6786C73.3045 18.5874 74.32 19.5459 75.2864 20.5612C76.2529 21.5765 77.1633 22.6273 78.0178 23.7206L71.7847 30.3945C70.9303 29.3437 70.0619 28.3355 69.1864 27.3771C68.311 26.4186 67.4496 25.4956 66.5882 24.6294C66.4481 24.5229 66.308 24.4093 66.189 24.3028C66.0629 24.1963 65.9509 24.0827 65.8388 23.9762C65.6987 23.8697 65.5587 23.7561 65.4396 23.6496C65.3136 23.5431 65.2015 23.4295 65.0894 23.323C64.4101 23.8626 63.7238 24.388 63.0234 24.8992C62.3231 25.4033 61.6017 25.879 60.8524 26.3121C59.5988 27.0718 58.3311 27.7321 57.0425 28.2929C55.7539 28.8538 54.4513 29.3295 53.1276 29.7271L48.5264 22.9254C50.4593 22.1658 52.2452 21.3564 53.891 20.4902C55.5368 19.624 57.0565 18.6655 58.4502 17.6147C59.7739 16.635 60.9224 15.5984 61.8889 14.4908C62.8554 13.3903 63.6397 12.2401 64.256 11.0403L50.4173 11.019L50.4313 2.32163L73.8087 2.35712V2.35002ZM61.5947 31.1471V37.4021L91.9896 37.4447L91.9756 45.6024L52.1822 45.5456L52.2032 31.14L61.5877 31.1542L61.5947 31.1471ZM82.0447 17.6928C81.9397 17.7638 81.8066 17.8135 81.6455 17.8277C81.4844 17.849 81.2954 17.8561 81.0853 17.8561C80.8331 17.9271 80.581 17.9768 80.3359 17.991C80.0838 18.0123 79.8526 18.0194 79.6355 18.0194C79.3484 18.0549 79.0753 18.0762 78.8021 18.0691C78.529 18.062 78.2909 18.0691 78.0808 18.0691C77.7936 18.1046 77.5415 18.1259 77.3314 18.1259C77.1143 18.1259 76.9392 18.1259 76.7922 18.1259H75.6156L75.6296 9.42859H82.0657L82.0797 1.93823L91.4643 1.95243L91.4223 32.5032L82.0377 32.489L82.0587 17.6999L82.0447 17.6928Z" fill="white"/>
<path d="M118.89 15.2505L96.5283 15.215L96.5423 7.1141H103.567L103.574 0.603516L111.887 0.617715V7.1425L118.904 7.1567L118.89 15.2576V15.2505ZM107.748 44.3174C105.962 44.3174 104.386 44.0405 103.027 43.4938C101.669 42.9471 100.541 42.1165 99.6518 40.9876C98.6854 39.9013 97.985 38.4813 97.5368 36.7419C97.0886 35.0024 96.8715 32.9363 96.8785 30.5437C96.8785 28.2575 97.1236 26.2695 97.6139 24.5656C98.0971 22.8616 98.8395 21.4132 99.8479 20.2205C100.814 19.0987 101.963 18.2467 103.287 17.6716C104.61 17.0965 106.109 16.8054 107.79 16.8054C109.436 16.8054 110.92 17.1036 112.237 17.6787C113.561 18.2609 114.716 19.1129 115.718 20.2418C116.684 21.4416 117.413 22.89 117.91 24.594C118.407 26.2979 118.652 28.293 118.652 30.5721C118.652 32.9647 118.407 35.0308 117.917 36.7703C117.434 38.5097 116.74 39.9226 115.844 41.0089C114.877 42.1307 113.715 42.9613 112.356 43.5009C110.997 44.0405 109.457 44.3103 107.741 44.3103L107.748 44.3174ZM107.755 36.1597C108.112 36.1597 108.441 36.0532 108.749 35.8331C109.05 35.613 109.352 35.2722 109.639 34.8036C109.856 34.3705 110.024 33.7954 110.15 33.0925C110.276 32.3825 110.339 31.5447 110.339 30.565C110.339 29.6633 110.276 28.8539 110.157 28.1439C110.031 27.4339 109.863 26.8304 109.653 26.3192C109.366 25.8862 109.071 25.5525 108.77 25.3111C108.469 25.0768 108.133 24.9561 107.776 24.9561C107.349 24.9561 106.977 25.0697 106.676 25.3111C106.375 25.5454 106.109 25.8791 105.899 26.3121C105.647 26.8233 105.465 27.4268 105.36 28.1297C105.255 28.8326 105.199 29.642 105.199 30.5508C105.199 31.5305 105.248 32.3683 105.353 33.0783C105.458 33.7883 105.654 34.3563 105.941 34.7894C106.158 35.258 106.41 35.6059 106.718 35.826C107.019 36.0461 107.37 36.1526 107.762 36.1526L107.755 36.1597ZM133.135 25.7584C132.673 25.8649 132.19 25.9714 131.685 26.085C131.181 26.1914 130.663 26.2482 130.131 26.2482L130.103 45.9859L121.58 45.9717L121.643 1.98799L130.166 2.00219L130.145 17.0042H133.149L133.17 2.00219L141.644 2.01639L141.581 46.0001L133.107 45.9859L133.135 25.7655V25.7584Z" fill="white"/>
<path d="M171.044 28.1226L171.023 44.1044L161.057 44.0902L161.078 28.1084L147.155 2.88965L158.431 2.90385L166.015 18.5662L173.649 2.92515L184.925 2.93935L171.037 28.1155L171.044 28.1226Z" fill="white"/>
<path d="M205.137 45.212C202.069 45.212 199.331 44.7008 196.929 43.6997C194.519 42.6986 192.495 41.2716 190.857 39.4185C189.183 37.5654 187.915 35.3006 187.061 32.6168C186.206 29.9331 185.786 26.9227 185.786 23.5929C185.786 20.2631 186.22 17.2669 187.089 14.6045C187.95 11.942 189.225 9.68425 190.906 7.83829C192.551 5.99232 194.582 4.55815 196.992 3.54286C199.401 2.52758 202.139 2.02349 205.207 2.03059C208.274 2.03059 211.019 2.54888 213.443 3.57126C215.866 4.59365 217.918 6.02782 219.599 7.88089C221.272 9.73395 222.561 11.9917 223.451 14.6613C224.34 17.3237 224.781 20.327 224.781 23.6568C224.781 26.9866 224.326 29.9899 223.422 32.6736C222.526 35.3574 221.237 37.6222 219.55 39.4682C217.869 41.3142 215.81 42.7341 213.387 43.7352C210.956 44.7292 208.211 45.2262 205.144 45.2191L205.137 45.212ZM205.256 35.7763C208.099 35.7763 210.424 34.69 212.217 32.5103C214.01 30.3307 214.906 27.37 214.913 23.6355C214.913 21.896 214.675 20.2844 214.178 18.8076C213.688 17.3308 213.022 16.0315 212.182 14.9169C211.342 13.8448 210.333 12.9999 209.15 12.3893C207.966 11.7787 206.677 11.4663 205.291 11.4663C203.869 11.4663 202.559 11.7645 201.376 12.3751C200.185 12.9857 199.177 13.8235 198.336 14.8956C197.496 16.0031 196.838 17.3024 196.361 18.7792C195.885 20.256 195.647 21.8676 195.64 23.6071C195.64 27.3416 196.515 30.3094 198.28 32.489C200.045 34.6758 202.37 35.7692 205.256 35.7763Z" fill="white"/>
<path d="M247.808 36.4086C249.552 36.4086 251.073 35.8607 252.364 34.7647C253.654 33.6688 254.296 31.9537 254.296 29.6195V12.1272H264V30.4521C264 32.9002 263.603 35.0636 262.8 36.9352C261.998 38.8069 260.889 40.3939 259.473 41.6891C258.056 42.9487 256.354 43.9165 254.373 44.5783C252.392 45.2473 250.201 45.5818 247.801 45.5818C245.401 45.5818 243.218 45.2473 241.257 44.5783C239.297 43.9094 237.602 42.9487 236.185 41.6891C234.804 40.3939 233.73 38.8069 232.969 36.9352C232.209 35.0636 231.825 32.9002 231.825 30.4521V12.1272H241.529V29.6195C241.529 31.9537 242.136 33.6688 243.357 34.7647C244.578 35.8607 246.057 36.4086 247.801 36.4086H247.808Z" fill="white"/>
<path d="M236.156 8.78182C238.549 8.78182 240.488 6.81595 240.488 4.39091C240.488 1.96588 238.549 0 236.156 0C233.764 0 231.825 1.96588 231.825 4.39091C231.825 6.81595 233.764 8.78182 236.156 8.78182Z" fill="white"/>
<path d="M258.843 8.78182C261.235 8.78182 263.174 6.81595 263.174 4.39091C263.174 1.96588 261.235 0 258.843 0C256.451 0 254.512 1.96588 254.512 4.39091C254.512 6.81595 256.451 8.78182 258.843 8.78182Z" fill="white"/>
</svg>
