<svg width="30" height="40" viewBox="0 0 30 40" fill="none" xmlns="http://www.w3.org/2000/svg">
<g clip-path="url(#clip0_6120_5668)">
<path d="M14.8898 0.134766H14.6602C10.7251 0.134766 7.53516 3.33366 7.53516 7.2797V17.456C7.53516 21.4021 10.7251 24.601 14.6602 24.601H14.8898C18.8248 24.601 22.0148 21.4021 22.0148 17.456V7.2797C22.0148 3.33366 18.8248 0.134766 14.8898 0.134766Z" fill="#FF6482"/>
<path d="M14.7753 31.88C6.75865 31.88 0.234375 25.3375 0.234375 17.2985C0.234375 16.2394 1.09152 15.3799 2.14765 15.3799C3.20378 15.3799 4.06093 16.2394 4.06093 17.2985C4.06093 23.2232 8.86708 28.0428 14.7753 28.0428C20.6835 28.0428 25.4896 23.2232 25.4896 17.2985C25.4896 16.2394 26.3468 15.3799 27.4029 15.3799C28.459 15.3799 29.3162 16.2394 29.3162 17.2985C29.3162 25.3375 22.7919 31.88 14.7753 31.88Z" fill="#FFB8C9"/>
<path d="M14.7746 39.0673C13.7185 39.0673 12.8613 38.2078 12.8613 37.1487V29.9616C12.8613 28.9025 13.7185 28.043 14.7746 28.043C15.8307 28.043 16.6879 28.9025 16.6879 29.9616V37.1487C16.6879 38.2078 15.8307 39.0673 14.7746 39.0673Z" fill="#FFB8C9"/>
<path d="M21.1075 39.0672H8.4416C7.38547 39.0672 6.52832 38.2077 6.52832 37.1486C6.52832 36.0895 7.38547 35.23 8.4416 35.23H21.1113C22.1674 35.23 23.0246 36.0895 23.0246 37.1486C23.0246 38.2077 22.1674 39.0672 21.1113 39.0672H21.1075Z" fill="#FFB8C9"/>
</g>
<defs>
<clipPath id="clip0_6120_5668">
<rect width="29.0818" height="38.9326" fill="white" transform="translate(0.234375 0.134766)"/>
</clipPath>
</defs>
</svg>
