<svg width="81" height="100" viewBox="0 0 81 100" fill="none" xmlns="http://www.w3.org/2000/svg">
<g clip-path="url(#clip0_6120_5543)">
<path d="M69.9745 34.9978H11.1559C5.16997 34.9978 0.317383 39.8667 0.317383 45.8729V185.234C0.317383 191.24 5.16997 196.109 11.1559 196.109H69.9745C75.9604 196.109 80.813 191.24 80.813 185.234V45.8729C80.813 39.8667 75.9604 34.9978 69.9745 34.9978Z" fill="#211A53"/>
<path d="M76.9541 45.873L76.9541 185.235C76.9541 189.101 73.8267 192.238 69.9745 192.238H11.1543C7.30206 192.238 4.17464 189.101 4.17464 185.235L4.17464 45.8713C4.17464 42.0061 7.30206 38.8682 11.1543 38.8682L69.9745 38.8682C73.8267 38.8682 76.9541 42.0061 76.9541 45.8713V45.873Z" fill="#ECF3FE"/>
<path d="M49.8183 44.3276H31.3106C29.5237 44.3276 27.8778 43.3562 27.012 41.7889L24.3896 37.0483H56.7409L54.1185 41.7889C53.2511 43.3562 51.6052 44.3276 49.82 44.3276H49.8183Z" fill="#211A53"/>
<path d="M11.3741 54.2883H47.1867C49.1346 54.2883 50.7168 55.8758 50.7168 57.8303V68.1195C50.7168 70.074 49.1346 71.6615 47.1867 71.6615H7.8457V57.8303C7.8457 55.8758 9.42787 54.2883 11.3758 54.2883H11.3741Z" fill="#C1E7F4"/>
<path d="M7.8457 79.1461V69.7036H13.1643L7.8457 79.1461Z" fill="#C1E7F4"/>
<path d="M73.2861 88.395H44.8357C42.8878 88.395 41.3057 86.8075 41.3057 84.8531V79.2775C41.3057 77.323 42.8878 75.7355 44.8357 75.7355H69.7561C71.704 75.7355 73.2861 77.323 73.2861 79.2775V88.395Z" fill="#F7B261"/>
<path d="M73.2871 95.8812V86.4387H67.9668L73.2871 95.8812Z" fill="#F7B261"/>
<path d="M59.9661 84.4221H45.9414" stroke="white" stroke-width="1.11853" stroke-linecap="round" stroke-linejoin="round"/>
<path d="M68.6537 84.4221H62.9727" stroke="white" stroke-width="1.11853" stroke-linecap="round" stroke-linejoin="round"/>
<path d="M50.4513 79.7102H45.9414" stroke="white" stroke-width="1.11853" stroke-linecap="round" stroke-linejoin="round"/>
<path d="M68.6528 79.7102H53.8076" stroke="white" stroke-width="1.11853" stroke-linecap="round" stroke-linejoin="round"/>
<path d="M33.0525 67.6853H13.2461" stroke="white" stroke-width="1.11853" stroke-linecap="round" stroke-linejoin="round"/>
<path d="M45.3201 67.6853H37.2969" stroke="white" stroke-width="1.11853" stroke-linecap="round" stroke-linejoin="round"/>
<path d="M19.615 62.9751H13.2461" stroke="white" stroke-width="1.11853" stroke-linecap="round" stroke-linejoin="round"/>
<path d="M45.3186 62.9751H24.3545" stroke="white" stroke-width="1.11853" stroke-linecap="round" stroke-linejoin="round"/>
<path d="M45.3201 58.2629H37.2969" stroke="white" stroke-width="1.11853" stroke-linecap="round" stroke-linejoin="round"/>
<path d="M32.7059 58.2629H30.5986" stroke="white" stroke-width="1.11853" stroke-linecap="round" stroke-linejoin="round"/>
<path d="M25.895 58.2629H13.2461" stroke="white" stroke-width="1.11853" stroke-linecap="round" stroke-linejoin="round"/>
</g>
<path d="M43.0686 18.1126C43.0686 19.4997 41.9479 20.6226 40.567 20.6226C39.1845 20.6226 38.0654 19.498 38.0654 18.1126C38.0654 16.7254 39.1862 15.6025 40.567 15.6025C41.9479 15.6025 43.0686 16.7271 43.0686 18.1126Z" fill="#FF7E7E"/>
<path d="M40.5671 0.963379C35.5035 0.963379 30.9583 3.19394 27.8276 6.7174C27.1883 7.43623 27.2286 8.5372 27.9064 9.21731C28.6279 9.94119 29.8275 9.94793 30.5036 9.18028C32.9683 6.38744 36.5638 4.62151 40.5654 4.62151C44.5669 4.62151 48.1624 6.38744 50.6254 9.18028C51.3016 9.94793 52.5012 9.94119 53.2244 9.21731C53.9039 8.53552 53.9425 7.43623 53.3049 6.7174C50.1758 3.19394 45.6307 0.963379 40.5671 0.963379Z" fill="#FF7E7E"/>
<path d="M40.5668 8.2832C37.4579 8.2832 34.6845 9.74612 32.8892 12.0205C32.3305 12.7275 32.4295 13.7578 33.0654 14.3958L33.0939 14.4244C33.8523 15.1853 35.109 15.1315 35.7717 14.2881C36.8925 12.8622 38.6172 11.9447 40.5652 11.9447C42.5131 11.9447 44.2379 12.8639 45.3586 14.2881C46.0214 15.1315 47.2797 15.1853 48.0364 14.4244L48.0649 14.3958C48.7008 13.7578 48.7998 12.7292 48.2411 12.0205C46.4458 9.74612 43.6741 8.2832 40.5652 8.2832H40.5668Z" fill="#FF7E7E"/>
<defs>
<clipPath id="clip0_6120_5543">
<rect width="80.5342" height="88.3639" fill="white" transform="translate(0.317383 11.5894)"/>
</clipPath>
</defs>
</svg>
