<svg width="122" height="118" viewBox="0 0 122 118" fill="none" xmlns="http://www.w3.org/2000/svg">
<g clip-path="url(#clip0_6120_5505)">
<path d="M98.2473 113.484C98.2473 113.484 97.3735 103.928 93.5481 91.4543C89.7227 78.9809 89.1872 78.2768 83.2115 70.2979C77.2399 62.3189 53.583 46.9927 47.1403 44.7314C40.6975 42.4701 40.4277 48.401 42.3082 51.1532C42.3082 51.1532 36.0668 44.7837 32.5756 46.86C29.8496 48.4855 31.2831 52.7023 33.4978 55.873C33.4978 55.873 24.5907 55.5471 34.5044 70.9376C34.5044 70.9376 31.7864 69.481 30.5784 70.6358C29.3704 71.7906 29.016 75.3114 36.0628 85.9741C43.1095 96.6368 42.9565 99.3528 45.3725 104.234C47.7886 109.114 53.9293 124.151 74.0105 129.832C94.0917 135.514 98.9077 120.159 98.2392 113.488L98.2473 113.484Z" fill="#FFC4A7"/>
<path d="M34.5078 70.9338L47.4416 87.9339" stroke="#F0A17A" stroke-width="0.419449" stroke-miterlimit="10" stroke-linecap="round"/>
<path d="M33.502 55.8691L53.9858 80.5584" stroke="#F0A17A" stroke-width="0.419449" stroke-miterlimit="10" stroke-linecap="round"/>
<path d="M42.3086 51.1494L62.6958 73.1468" stroke="#F0A17A" stroke-width="0.419449" stroke-miterlimit="10" stroke-linecap="round"/>
<path d="M74.2914 34.6521H41.3166C40.4293 34.6521 39.71 35.3709 39.71 36.2575V101.65C39.71 102.537 40.4293 103.256 41.3166 103.256H74.2914C75.1787 103.256 75.898 102.537 75.898 101.65V36.2575C75.898 35.3709 75.1787 34.6521 74.2914 34.6521Z" fill="#2A495D"/>
<mask id="mask0_6120_5505" style="mask-type:luminance" maskUnits="userSpaceOnUse" x="40" y="35" width="35" height="67">
<path d="M73.8162 35.96H41.7878C41.343 35.96 40.9824 36.3203 40.9824 36.7647V101.143C40.9824 101.588 41.343 101.948 41.7878 101.948H73.8162C74.261 101.948 74.6216 101.588 74.6216 101.143V36.7647C74.6216 36.3203 74.261 35.96 73.8162 35.96Z" fill="white"/>
</mask>
<g mask="url(#mask0_6120_5505)">
<path d="M73.8162 35.96H41.7878C41.343 35.96 40.9824 36.3203 40.9824 36.7647V101.143C40.9824 101.588 41.343 101.948 41.7878 101.948H73.8162C74.261 101.948 74.6216 101.588 74.6216 101.143V36.7647C74.6216 36.3203 74.261 35.96 73.8162 35.96Z" fill="#E7594D"/>
</g>
<path d="M86.9349 83.359C86.9349 83.359 78.4869 82.2283 72.479 80.6913C67.0671 79.3071 65.2148 79.8986 64.4497 81.2707C63.7451 82.5381 63.6605 86.1313 68.4442 89.7807C73.228 93.4302 76.0668 94.8385 79.1472 97.3573C81.7324 99.4698 76.9648 109.163 86.041 114.993C87.4503 115.898 99.5023 122.155 98.2983 101.466C98.0204 96.6854 97.7144 85.1857 86.9309 83.359H86.9349Z" fill="#FFC4A7"/>
<path d="M76.3193 95.2529C77.2817 95.9128 78.2079 96.5807 79.1501 97.3573C81.7353 99.4697 76.9354 109.211 86.0438 114.993" stroke="#F0A17A" stroke-width="0.419449" stroke-miterlimit="10" stroke-linecap="round"/>
<path d="M86.9348 83.3591C86.9348 83.3591 81.4786 82.6268 76.2197 81.5444" stroke="#F0A17A" stroke-width="0.419449" stroke-miterlimit="10" stroke-linecap="round"/>
<path d="M50.1032 72.2465C49.4231 72.2465 48.8146 72.1347 48.2777 71.911C47.7498 71.6783 47.3292 71.3651 47.016 70.9714C46.7118 70.5687 46.5418 70.1169 46.506 69.6158H49.0562C49.092 69.8574 49.2039 70.0453 49.3918 70.1795C49.5797 70.3137 49.8123 70.3808 50.0897 70.3808C50.3045 70.3808 50.4745 70.3361 50.5998 70.2466C50.7251 70.1571 50.7877 70.0408 50.7877 69.8976C50.7877 69.7097 50.6848 69.571 50.479 69.4815C50.2732 69.3921 49.9331 69.2936 49.4589 69.1862C48.922 69.0789 48.4746 68.9581 48.1166 68.8238C47.7587 68.6896 47.4455 68.4704 47.1771 68.1661C46.9176 67.8619 46.7878 67.4503 46.7878 66.9313C46.7878 66.4839 46.9086 66.0812 47.1502 65.7233C47.3918 65.3564 47.7453 65.0656 48.2106 64.8508C48.6849 64.6361 49.2531 64.5287 49.9152 64.5287C50.8995 64.5287 51.6736 64.7703 52.2373 65.2535C52.8011 65.7367 53.1277 66.372 53.2171 67.1595H50.8414C50.7966 66.9179 50.6893 66.7344 50.5192 66.6091C50.3582 66.4749 50.1389 66.4078 49.8616 66.4078C49.6468 66.4078 49.4813 66.4481 49.3649 66.5286C49.2575 66.6091 49.2039 66.721 49.2039 66.8642C49.2039 67.0431 49.3068 67.1818 49.5126 67.2803C49.7184 67.3697 50.0495 67.4637 50.5058 67.5621C51.0517 67.6785 51.5036 67.8082 51.8615 67.9514C52.2284 68.0946 52.546 68.3272 52.8145 68.6493C53.0919 68.9625 53.2306 69.3921 53.2306 69.9379C53.2306 70.3764 53.1008 70.7701 52.8413 71.1191C52.5908 71.468 52.2284 71.7454 51.7541 71.9513C51.2888 72.1481 50.7385 72.2465 50.1032 72.2465ZM58.0272 72.2465C57.2755 72.2465 56.5999 72.09 56.0004 71.7768C55.4098 71.4636 54.9445 71.0162 54.6045 70.4345C54.2644 69.8529 54.0944 69.1683 54.0944 68.3809C54.0944 67.6024 54.2644 66.9223 54.6045 66.3407C54.9535 65.7591 55.4232 65.3117 56.0138 64.9985C56.6134 64.6853 57.2889 64.5287 58.0406 64.5287C58.7923 64.5287 59.4634 64.6853 60.054 64.9985C60.6535 65.3117 61.1233 65.7591 61.4633 66.3407C61.8123 66.9223 61.9868 67.6024 61.9868 68.3809C61.9868 69.1594 61.8123 69.8439 61.4633 70.4345C61.1233 71.0162 60.6535 71.4636 60.054 71.7768C59.4544 72.09 58.7788 72.2465 58.0272 72.2465ZM58.0272 69.9647C58.3941 69.9647 58.6983 69.8305 58.9399 69.5621C59.1904 69.2847 59.3157 68.891 59.3157 68.3809C59.3157 67.8709 59.1904 67.4816 58.9399 67.2132C58.6983 66.9447 58.3985 66.8105 58.0406 66.8105C57.6827 66.8105 57.3829 66.9447 57.1413 67.2132C56.8997 67.4816 56.7789 67.8709 56.7789 68.3809C56.7789 68.8999 56.8952 69.2936 57.1279 69.5621C57.3605 69.8305 57.6603 69.9647 58.0272 69.9647ZM66.2651 72.2465C65.585 72.2465 64.9765 72.1347 64.4396 71.911C63.9117 71.6783 63.4911 71.3651 63.1779 70.9714C62.8737 70.5687 62.7036 70.1169 62.6679 69.6158H65.2181C65.2539 69.8574 65.3658 70.0453 65.5537 70.1795C65.7416 70.3137 65.9742 70.3808 66.2516 70.3808C66.4664 70.3808 66.6364 70.3361 66.7617 70.2466C66.887 70.1571 66.9496 70.0408 66.9496 69.8976C66.9496 69.7097 66.8467 69.571 66.6409 69.4815C66.4351 69.3921 66.095 69.2936 65.6208 69.1862C65.0839 69.0789 64.6365 68.9581 64.2785 68.8238C63.9206 68.6896 63.6074 68.4704 63.339 68.1661C63.0795 67.8619 62.9497 67.4503 62.9497 66.9313C62.9497 66.4839 63.0705 66.0812 63.3121 65.7233C63.5537 65.3564 63.9072 65.0656 64.3725 64.8508C64.8468 64.6361 65.415 64.5287 66.0771 64.5287C67.0614 64.5287 67.8355 64.7703 68.3992 65.2535C68.9629 65.7367 69.2896 66.372 69.379 67.1595H67.0033C66.9585 66.9179 66.8512 66.7344 66.6811 66.6091C66.5201 66.4749 66.3008 66.4078 66.0234 66.4078C65.8087 66.4078 65.6431 66.4481 65.5268 66.5286C65.4194 66.6091 65.3658 66.721 65.3658 66.8642C65.3658 67.0431 65.4687 67.1818 65.6745 67.2803C65.8803 67.3697 66.2114 67.4637 66.6677 67.5621C67.2136 67.6785 67.6655 67.8082 68.0234 67.9514C68.3903 68.0946 68.7079 68.3272 68.9764 68.6493C69.2538 68.9625 69.3925 69.3921 69.3925 69.9379C69.3925 70.3764 69.2627 70.7701 69.0032 71.1191C68.7527 71.468 68.3903 71.7454 67.916 71.9513C67.4507 72.1481 66.9004 72.2465 66.2651 72.2465Z" fill="white"/>
</g>
<g opacity="0.6">
<path d="M114.445 24.2673C118.581 24.2673 121.934 27.6206 121.935 31.7566C121.935 35.8928 118.582 39.2458 114.445 39.2458H90.2754C89.0061 39.2458 87.8112 38.9291 86.7637 38.3718C86.8225 38.9162 86.6848 39.4847 86.3652 39.7527L85.7139 40.2996C85.0646 40.8441 84.3023 39.725 84.5381 38.573L84.7754 37.4158C84.8089 37.2522 84.8594 37.1104 84.9219 36.9919C83.6013 35.6416 82.7861 33.7945 82.7861 31.7566C82.7864 27.6206 86.1394 24.2674 90.2754 24.2673H114.445Z" fill="#E0EBFE"/>
</g>
<g opacity="0.6">
<path d="M12.3203 0.778564C5.52512 0.778564 0.0156708 6.28709 0.015625 13.0823C0.015625 19.8775 5.52509 25.386 12.3203 25.386H52.0273C53.9569 25.386 55.7828 24.9414 57.4082 24.1497C57.3098 24.7315 57.4429 25.3725 57.7881 25.6624L60.709 28.1116C61.3582 28.6561 62.1196 27.537 61.8838 26.385L60.9043 21.5969C63.0253 19.3863 64.3311 16.3878 64.3311 13.0823C64.331 6.28709 58.8225 0.778564 52.0273 0.778564H12.3203Z" fill="#E0EBFE"/>
</g>
<path d="M102.557 33.1093C103.147 33.1093 103.625 32.6323 103.625 32.0439C103.625 31.4555 103.147 30.9785 102.557 30.9785C101.967 30.9785 101.489 31.4555 101.489 32.0439C101.489 32.6323 101.967 33.1093 102.557 33.1093Z" fill="#B4C1C7"/>
<path d="M93.3854 33.1093C93.9753 33.1093 94.4535 32.6323 94.4535 32.0439C94.4535 31.4555 93.9753 30.9785 93.3854 30.9785C92.7956 30.9785 92.3174 31.4555 92.3174 32.0439C92.3174 32.6323 92.7956 33.1093 93.3854 33.1093Z" fill="#B4C1C7"/>
<path d="M111.739 33.1093C112.329 33.1093 112.807 32.6323 112.807 32.0439C112.807 31.4555 112.329 30.9785 111.739 30.9785C111.149 30.9785 110.671 31.4555 110.671 32.0439C110.671 32.6323 111.149 33.1093 111.739 33.1093Z" fill="#B4C1C7"/>
<path d="M32.4939 14.9049C33.463 14.9049 34.2486 14.1213 34.2486 13.1546C34.2486 12.1879 33.463 11.4043 32.4939 11.4043C31.5249 11.4043 30.7393 12.1879 30.7393 13.1546C30.7393 14.1213 31.5249 14.9049 32.4939 14.9049Z" fill="#B4C1C7"/>
<path d="M17.4295 14.9049C18.3985 14.9049 19.1841 14.1213 19.1841 13.1546C19.1841 12.1879 18.3985 11.4043 17.4295 11.4043C16.4604 11.4043 15.6748 12.1879 15.6748 13.1546C15.6748 14.1213 16.4604 14.9049 17.4295 14.9049Z" fill="#B4C1C7"/>
<path d="M47.5818 14.9049C48.5509 14.9049 49.3365 14.1213 49.3365 13.1546C49.3365 12.1879 48.5509 11.4043 47.5818 11.4043C46.6127 11.4043 45.8271 12.1879 45.8271 13.1546C45.8271 14.1213 46.6127 14.9049 47.5818 14.9049Z" fill="#B4C1C7"/>
<defs>
<clipPath id="clip0_6120_5505">
<rect width="120.801" height="88.9232" fill="white" transform="translate(1.13379 28.1821)"/>
</clipPath>
</defs>
</svg>
