<svg width="41" height="40" viewBox="0 0 41 40" fill="none" xmlns="http://www.w3.org/2000/svg">
<path opacity="0.2" d="M7.25033 3.07404V5.44218H8.42129V6.01892H7.25033V8.80651H6.56872V3.07404H7.25033ZM7.60861 10.0998V10.6766H2.39171V8.21229H3.06458V10.0998H7.60861ZM3.36169 3.62457C4.52391 3.62457 5.39776 4.41103 5.4065 5.5383C5.39776 6.66557 4.52391 7.45204 3.36169 7.45204C2.19946 7.45204 1.31687 6.66557 1.32561 5.5383C1.31687 4.41103 2.19946 3.62457 3.36169 3.62457ZM3.36169 4.22752C2.5927 4.22752 1.98974 4.76931 1.99848 5.5383C1.98974 6.30729 2.5927 6.84908 3.36169 6.84908C4.14815 6.84908 4.73363 6.30729 4.73363 5.5383C4.73363 4.76931 4.14815 4.22752 3.36169 4.22752ZM9.79324 3.55466V6.73548C11.1171 6.73985 12.0478 6.67868 13.1139 6.45585L13.2013 7.02385C12.074 7.25105 11.0953 7.32096 9.68838 7.31222H9.09416V3.55466H9.79324ZM15.0713 3.07404V7.84527H14.381V5.9228H12.1526V5.38101H14.381V4.55085H12.1526V4.00032H14.381V3.07404H15.0713ZM12.4934 7.90644C14.1101 7.90644 15.0975 8.45697 15.0975 9.38325C15.0975 10.3008 14.1101 10.8338 12.4934 10.8426C10.8768 10.8338 9.88936 10.3008 9.88936 9.38325C9.88936 8.45697 10.8768 7.90644 12.4934 7.90644ZM12.4934 8.45697C11.305 8.45697 10.5622 8.80651 10.571 9.38325C10.5622 9.94252 11.305 10.2833 12.4934 10.2833C13.6819 10.2833 14.4159 9.94252 14.4159 9.38325C14.4159 8.80651 13.6819 8.45697 12.4934 8.45697ZM22.0971 3.07404V6.28108H23.3991V6.84908H22.0971V10.8426H21.4155V3.07404H22.0971ZM20.664 4.32365V4.89165H16.0413V4.32365H18.0424V3.17016H18.724V4.32365H20.664ZM18.3919 5.5383C19.493 5.5383 20.2882 6.27234 20.2969 7.32096C20.2882 8.36958 19.493 9.10362 18.3919 9.10362C17.2822 9.10362 16.4782 8.36958 16.4869 7.32096C16.4782 6.27234 17.2822 5.5383 18.3919 5.5383ZM18.3919 6.11504C17.6666 6.11504 17.1336 6.62188 17.1423 7.32096C17.1336 8.02878 17.6666 8.52688 18.3919 8.51814C19.1085 8.52688 19.6328 8.02878 19.6416 7.32096C19.6328 6.62188 19.1085 6.11504 18.3919 6.11504ZM25.8459 5.28489C25.8459 6.51702 26.4489 7.85401 27.48 8.46571L27.0868 8.99876C26.3396 8.54435 25.8022 7.71419 25.5313 6.77043C25.2429 7.80158 24.6662 8.68854 23.8885 9.16479L23.4516 8.64922C24.5264 8.02004 25.1818 6.63936 25.1818 5.3111V3.80807H25.8459V5.28489ZM30.1977 3.07404V10.8426H29.5336V3.07404H30.1977ZM28.5898 3.24007V10.4494H27.9432V6.44711H26.6236V5.86163H27.9432V3.24007H28.5898ZM38.1061 9.26965V9.84639H30.9929V9.26965H32.7581V7.17241C32.094 6.82723 31.692 6.26797 31.692 5.56452C31.692 4.3586 32.8717 3.57213 34.532 3.5634C36.1923 3.57213 37.372 4.3586 37.372 5.56452C37.372 6.25486 36.9832 6.80976 36.3409 7.15493V9.26965H38.1061ZM34.532 4.1314C33.2562 4.12266 32.3561 4.6994 32.3561 5.56452C32.3561 6.42963 33.2562 7.01511 34.532 7.01511C35.7991 7.01511 36.7079 6.42963 36.7079 5.56452C36.7079 4.6994 35.7991 4.12266 34.532 4.1314ZM33.4309 9.26965H35.6505V7.41708C35.3141 7.50884 34.9383 7.5569 34.532 7.5569C34.1344 7.5569 33.763 7.51321 33.4309 7.42582V9.26965ZM39.7052 3.80807L39.644 8.35211H38.91L38.8488 3.80807H39.7052ZM39.277 10.1872C38.9712 10.1872 38.709 9.93378 38.7178 9.61919C38.709 9.31334 38.9712 9.05993 39.277 9.05993C39.5829 9.05993 39.8363 9.31334 39.8363 9.61919C39.8363 9.93378 39.5829 10.1872 39.277 10.1872Z" fill="#333333"/>
<path opacity="0.5" d="M7.25033 16.4222V18.7903H8.42129V19.3671H7.25033V22.1547H6.56872V16.4222H7.25033ZM7.60861 23.448V24.0247H2.39171V21.5604H3.06458V23.448H7.60861ZM3.36169 16.9727C4.52391 16.9727 5.39776 17.7592 5.4065 18.8864C5.39776 20.0137 4.52391 20.8002 3.36169 20.8002C2.19946 20.8002 1.31687 20.0137 1.32561 18.8864C1.31687 17.7592 2.19946 16.9727 3.36169 16.9727ZM3.36169 17.5757C2.5927 17.5757 1.98974 18.1175 1.99848 18.8864C1.98974 19.6554 2.5927 20.1972 3.36169 20.1972C4.14815 20.1972 4.73363 19.6554 4.73363 18.8864C4.73363 18.1175 4.14815 17.5757 3.36169 17.5757ZM9.79324 16.9028V20.0836C11.1171 20.088 12.0478 20.0268 13.1139 19.804L13.2013 20.372C12.074 20.5992 11.0953 20.6691 9.68838 20.6604H9.09416V16.9028H9.79324ZM15.0713 16.4222V21.1934H14.381V19.2709H12.1526V18.7292H14.381V17.899H12.1526V17.3485H14.381V16.4222H15.0713ZM12.4934 21.2546C14.1101 21.2546 15.0975 21.8051 15.0975 22.7314C15.0975 23.6489 14.1101 24.182 12.4934 24.1907C10.8768 24.182 9.88936 23.6489 9.88936 22.7314C9.88936 21.8051 10.8768 21.2546 12.4934 21.2546ZM12.4934 21.8051C11.305 21.8051 10.5622 22.1547 10.571 22.7314C10.5622 23.2907 11.305 23.6315 12.4934 23.6315C13.6819 23.6315 14.4159 23.2907 14.4159 22.7314C14.4159 22.1547 13.6819 21.8051 12.4934 21.8051ZM22.0971 16.4222V19.6292H23.3991V20.1972H22.0971V24.1907H21.4155V16.4222H22.0971ZM20.664 17.6718V18.2398H16.0413V17.6718H18.0424V16.5183H18.724V17.6718H20.664ZM18.3919 18.8864C19.493 18.8864 20.2882 19.6205 20.2969 20.6691C20.2882 21.7177 19.493 22.4518 18.3919 22.4518C17.2822 22.4518 16.4782 21.7177 16.4869 20.6691C16.4782 19.6205 17.2822 18.8864 18.3919 18.8864ZM18.3919 19.4632C17.6666 19.4632 17.1336 19.97 17.1423 20.6691C17.1336 21.3769 17.6666 21.875 18.3919 21.8663C19.1085 21.875 19.6328 21.3769 19.6416 20.6691C19.6328 19.97 19.1085 19.4632 18.3919 19.4632ZM25.8459 18.633C25.8459 19.8652 26.4489 21.2022 27.48 21.8139L27.0868 22.3469C26.3396 21.8925 25.8022 21.0623 25.5313 20.1186C25.2429 21.1497 24.6662 22.0367 23.8885 22.5129L23.4516 21.9974C24.5264 21.3682 25.1818 19.9875 25.1818 18.6592V17.1562H25.8459V18.633ZM30.1977 16.4222V24.1907H29.5336V16.4222H30.1977ZM28.5898 16.5882V23.7975H27.9432V19.7953H26.6236V19.2098H27.9432V16.5882H28.5898ZM38.1061 22.6178V23.1945H30.9929V22.6178H32.7581V20.5206C32.094 20.1754 31.692 19.6161 31.692 18.9127C31.692 17.7067 32.8717 16.9203 34.532 16.9115C36.1923 16.9203 37.372 17.7067 37.372 18.9127C37.372 19.603 36.9832 20.1579 36.3409 20.5031V22.6178H38.1061ZM34.532 17.4795C33.2562 17.4708 32.3561 18.0475 32.3561 18.9127C32.3561 19.7778 33.2562 20.3633 34.532 20.3633C35.7991 20.3633 36.7079 19.7778 36.7079 18.9127C36.7079 18.0475 35.7991 17.4708 34.532 17.4795ZM33.4309 22.6178H35.6505V20.7652C35.3141 20.857 34.9383 20.905 34.532 20.905C34.1344 20.905 33.763 20.8614 33.4309 20.774V22.6178ZM39.7052 17.1562L39.644 21.7003H38.91L38.8488 17.1562H39.7052ZM39.277 23.5353C38.9712 23.5353 38.709 23.2819 38.7178 22.9673C38.709 22.6615 38.9712 22.4081 39.277 22.4081C39.5829 22.4081 39.8363 22.6615 39.8363 22.9673C39.8363 23.2819 39.5829 23.5353 39.277 23.5353Z" fill="#333333"/>
<path opacity="0.8" d="M7.25033 29.7708V32.139H8.42129V32.7157H7.25033V35.5033H6.56872V29.7708H7.25033ZM7.60861 36.7966V37.3733H2.39171V34.9091H3.06458V36.7966H7.60861ZM3.36169 30.3213C4.52391 30.3213 5.39776 31.1078 5.4065 32.2351C5.39776 33.3623 4.52391 34.1488 3.36169 34.1488C2.19946 34.1488 1.31687 33.3623 1.32561 32.2351C1.31687 31.1078 2.19946 30.3213 3.36169 30.3213ZM3.36169 30.9243C2.5927 30.9243 1.98974 31.4661 1.99848 32.2351C1.98974 33.0041 2.5927 33.5459 3.36169 33.5459C4.14815 33.5459 4.73363 33.0041 4.73363 32.2351C4.73363 31.4661 4.14815 30.9243 3.36169 30.9243ZM9.79324 30.2514V33.4323C11.1171 33.4366 12.0478 33.3755 13.1139 33.1526L13.2013 33.7206C12.074 33.9478 11.0953 34.0177 9.68838 34.009H9.09416V30.2514H9.79324ZM15.0713 29.7708V34.542H14.381V32.6196H12.1526V32.0778H14.381V31.2476H12.1526V30.6971H14.381V29.7708H15.0713ZM12.4934 34.6032C14.1101 34.6032 15.0975 35.1537 15.0975 36.08C15.0975 36.9976 14.1101 37.5306 12.4934 37.5394C10.8768 37.5306 9.88936 36.9976 9.88936 36.08C9.88936 35.1537 10.8768 34.6032 12.4934 34.6032ZM12.4934 35.1537C11.305 35.1537 10.5622 35.5033 10.571 36.08C10.5622 36.6393 11.305 36.9801 12.4934 36.9801C13.6819 36.9801 14.4159 36.6393 14.4159 36.08C14.4159 35.5033 13.6819 35.1537 12.4934 35.1537ZM22.0971 29.7708V32.9779H23.3991V33.5459H22.0971V37.5394H21.4155V29.7708H22.0971ZM20.664 31.0204V31.5884H16.0413V31.0204H18.0424V29.8669H18.724V31.0204H20.664ZM18.3919 32.2351C19.493 32.2351 20.2882 32.9691 20.2969 34.0177C20.2882 35.0664 19.493 35.8004 18.3919 35.8004C17.2822 35.8004 16.4782 35.0664 16.4869 34.0177C16.4782 32.9691 17.2822 32.2351 18.3919 32.2351ZM18.3919 32.8118C17.6666 32.8118 17.1336 33.3187 17.1423 34.0177C17.1336 34.7256 17.6666 35.2237 18.3919 35.2149C19.1085 35.2237 19.6328 34.7256 19.6416 34.0177C19.6328 33.3187 19.1085 32.8118 18.3919 32.8118ZM25.8459 31.9817C25.8459 33.2138 26.4489 34.5508 27.48 35.1625L27.0868 35.6955C26.3396 35.2411 25.8022 34.411 25.5313 33.4672C25.2429 34.4984 24.6662 35.3853 23.8885 35.8616L23.4516 35.346C24.5264 34.7168 25.1818 33.3361 25.1818 32.0079V30.5049H25.8459V31.9817ZM30.1977 29.7708V37.5394H29.5336V29.7708H30.1977ZM28.5898 29.9368V37.1461H27.9432V33.1439H26.6236V32.5584H27.9432V29.9368H28.5898ZM38.1061 35.9664V36.5432H30.9929V35.9664H32.7581V33.8692C32.094 33.524 31.692 32.9647 31.692 32.2613C31.692 31.0554 32.8717 30.2689 34.532 30.2602C36.1923 30.2689 37.372 31.0554 37.372 32.2613C37.372 32.9516 36.9832 33.5065 36.3409 33.8517V35.9664H38.1061ZM34.532 30.8282C33.2562 30.8194 32.3561 31.3962 32.3561 32.2613C32.3561 33.1264 33.2562 33.7119 34.532 33.7119C35.7991 33.7119 36.7079 33.1264 36.7079 32.2613C36.7079 31.3962 35.7991 30.8194 34.532 30.8282ZM33.4309 35.9664H35.6505V34.1139C35.3141 34.2056 34.9383 34.2537 34.532 34.2537C34.1344 34.2537 33.763 34.21 33.4309 34.1226V35.9664ZM39.7052 30.5049L39.644 35.0489H38.91L38.8488 30.5049H39.7052ZM39.277 36.884C38.9712 36.884 38.709 36.6306 38.7178 36.316C38.709 36.0101 38.9712 35.7567 39.277 35.7567C39.5829 35.7567 39.8363 36.0101 39.8363 36.316C39.8363 36.6306 39.5829 36.884 39.277 36.884Z" fill="#333333"/>
</svg>
