<svg width="132" height="95" viewBox="0 0 132 95" fill="none" xmlns="http://www.w3.org/2000/svg">
<g clip-path="url(#clip0_5927_4966)">
<path d="M104.316 36.5606L103.155 42.0041C105.58 42.4935 108.353 42.7516 111.208 42.7516C113.62 42.7516 115.955 42.5669 118.047 42.2277L116.873 36.7241C115.074 36.9332 113.168 37.0422 111.208 37.0422C108.831 37.0422 106.491 36.8765 104.317 36.5606H104.316Z" fill="#F39618"/>
<path d="M102.18 46.5756L101.12 51.5442C101.871 51.8389 102.73 52.1037 103.667 52.3272C105.894 52.8578 108.479 53.1381 111.144 53.1381C114.494 53.1381 117.667 52.6965 120.114 51.919L119.023 46.8048C116.622 47.2118 113.969 47.4276 111.207 47.4276C108.028 47.4276 104.916 47.1329 102.18 46.5756Z" fill="#F39618"/>
<path d="M105.294 31.978C107.158 32.2327 109.163 32.3662 111.207 32.3662C112.819 32.3662 114.397 32.2839 115.891 32.1282L113.061 18.862C113.061 18.862 113.063 18.8531 113.063 18.8486C113.063 18.5828 111.95 18.367 110.576 18.367C109.202 18.367 108.089 18.5828 108.089 18.8486C108.089 18.8531 108.09 18.8575 108.091 18.862L105.293 31.978H105.294Z" fill="#F39618"/>
<path d="M121.093 56.5038C118.251 57.3492 114.8 57.813 111.145 57.813C108.127 57.813 105.172 57.4893 102.603 56.8764C101.728 56.6684 100.904 56.4271 100.136 56.1579L99.0075 61.4468C98.9248 61.6403 98.8818 61.8372 98.8818 62.0385C98.8818 64.2609 104.119 66.0617 110.578 66.0617C117.037 66.0617 122.274 64.2609 122.274 62.0385C122.274 61.8372 122.231 61.6403 122.148 61.4468L121.093 56.5038Z" fill="#F39618"/>
<path d="M131.961 64.8426C131.865 64.49 131.594 64.203 131.233 64.0985L122.148 61.4479C122.231 61.6414 122.274 61.8383 122.274 62.0396C122.274 64.262 117.037 66.0628 110.578 66.0628C104.118 66.0628 98.8817 64.262 98.8817 62.0396C98.8817 61.8383 98.9247 61.6414 99.0074 61.4479L89.922 64.0985C89.5615 64.2041 89.2903 64.49 89.1943 64.8426L110.578 74.6774L131.961 64.8426Z" fill="#EB7C1C"/>
<path d="M110.578 74.6774L89.1948 64.8426C89.1706 64.9338 89.1562 65.0283 89.1562 65.1262V65.8459C89.1562 66.2585 89.3922 66.6356 89.7615 66.8124L109.952 76.4904C110.348 76.6806 110.808 76.6806 111.204 76.4904L131.395 66.8124C131.765 66.6356 132 66.2585 132 65.8459V65.1262C132 65.0283 131.987 64.9338 131.962 64.8426L110.578 74.6774Z" fill="#F39618"/>
<path d="M15.1599 33.3572L13.999 38.8007C16.4233 39.2902 19.1971 39.5482 22.0514 39.5482C24.4636 39.5482 26.7986 39.3636 28.8911 39.0243L27.717 33.5207C25.9177 33.7299 24.0116 33.8389 22.0514 33.8389C19.6745 33.8389 17.3351 33.6731 15.161 33.3572H15.1599Z" fill="#F39618"/>
<path d="M13.0233 43.3723L11.9639 48.3408C12.7146 48.6356 13.5735 48.9003 14.5106 49.1239C16.7375 49.6544 19.3228 49.9347 21.9875 49.9347C25.3378 49.9347 28.5107 49.4931 30.9582 48.7157L29.8668 43.6014C27.4656 44.0085 24.8131 44.2243 22.0503 44.2243C18.8719 44.2243 15.7596 43.9295 13.0233 43.3723Z" fill="#F39618"/>
<path d="M16.1388 28.7747C18.0031 29.0294 20.0073 29.1628 22.0513 29.1628C23.6642 29.1628 25.2418 29.0805 26.7357 28.9248L23.9056 15.6586C23.9056 15.6586 23.9078 15.6497 23.9078 15.6453C23.9078 15.3794 22.7944 15.1637 21.4207 15.1637C20.047 15.1637 18.9335 15.3794 18.9335 15.6453C18.9335 15.6497 18.9346 15.6542 18.9357 15.6586L16.1377 28.7747H16.1388Z" fill="#F39618"/>
<path d="M31.9369 53.3005C29.0947 54.1458 25.644 54.6096 21.9883 54.6096C18.9708 54.6096 16.0162 54.2859 13.4464 53.6731C12.5721 53.4651 11.7475 53.2237 10.9802 52.9534L9.85127 58.2423C9.76858 58.4359 9.72559 58.6327 9.72559 58.8341C9.72559 61.0564 14.9623 62.8572 21.4216 62.8572C27.8809 62.8572 33.1176 61.0564 33.1176 58.8341C33.1176 58.6327 33.0746 58.4359 32.9919 58.2423L31.9369 53.2994V53.3005Z" fill="#F39618"/>
<path d="M42.8058 61.6392C42.7099 61.2866 42.4387 60.9997 42.0782 60.8951L32.9928 58.2445C33.0754 58.4381 33.1184 58.6349 33.1184 58.8363C33.1184 61.0586 27.8817 62.8594 21.4224 62.8594C14.9631 62.8594 9.7264 61.0586 9.7264 58.8363C9.7264 58.6349 9.76939 58.4381 9.85208 58.2445L0.766688 60.8951C0.406182 61.0008 0.134977 61.2866 0.0390625 61.6392L21.4224 71.474L42.8058 61.6392Z" fill="#EB7C1C"/>
<path d="M21.4219 71.474L0.0385862 61.6392C0.014332 61.7304 0 61.825 0 61.9229V62.6425C0 63.0552 0.235927 63.4322 0.605252 63.6091L20.7957 73.287C21.1915 73.4772 21.6513 73.4772 22.0481 73.287L42.2386 63.6091C42.6091 63.4322 42.8439 63.0552 42.8439 62.6425V61.9229C42.8439 61.825 42.8307 61.7304 42.8053 61.6392L21.4219 71.474Z" fill="#F39618"/>
<path d="M55.8959 29.6633L54.0029 38.5393C57.9564 39.3368 62.4787 39.7584 67.131 39.7584C71.0646 39.7584 74.8703 39.4581 78.2825 38.9042L76.3686 29.9314C73.4349 30.2717 70.3271 30.4497 67.131 30.4497C63.2548 30.4497 59.4403 30.1805 55.8959 29.6644V29.6633Z" fill="#F39618"/>
<path d="M52.4112 45.9928L50.6836 54.0935C51.9073 54.574 53.3086 55.0056 54.8355 55.3704C58.4659 56.2358 62.6817 56.6929 67.0265 56.6929C72.4881 56.6929 77.6631 55.9721 81.6529 54.7053L79.8735 46.3665C75.9586 47.0294 71.6326 47.382 67.1301 47.382C61.9474 47.382 56.8739 46.9015 52.4123 45.9916L52.4112 45.9928Z" fill="#F39618"/>
<path d="M57.4893 22.1921C60.5287 22.6081 63.7964 22.825 67.1303 22.825C69.7608 22.825 72.3328 22.6904 74.7693 22.4357L70.1543 0.806296C70.1543 0.79851 70.1577 0.791836 70.1577 0.78405C70.1577 0.35026 68.3419 -0.0012207 66.1028 -0.0012207C63.8637 -0.0012207 62.0479 0.35026 62.0479 0.78405C62.0479 0.791836 62.0501 0.79851 62.0512 0.806296L57.4893 22.1921Z" fill="#F39618"/>
<path d="M83.2471 62.1809C78.6124 63.5601 72.9865 64.3165 67.0266 64.3165C62.1063 64.3165 57.2897 63.7882 53.0981 62.7893C51.6726 62.4501 50.3287 62.0563 49.0774 61.617L47.2374 70.2405C47.1029 70.5553 47.0312 70.8778 47.0312 71.2048C47.0312 74.8276 55.5687 77.764 66.1016 77.764C76.6346 77.764 85.172 74.8276 85.172 71.2048C85.172 70.8767 85.1015 70.5553 84.9659 70.2405L83.246 62.1798L83.2471 62.1809Z" fill="#F39618"/>
<path d="M100.969 75.7764C100.812 75.2013 100.371 74.7341 99.7825 74.5629L84.9687 70.2416C85.1032 70.5564 85.1749 70.879 85.1749 71.206C85.1749 74.8287 76.6374 77.7651 66.1045 77.7651C55.5716 77.7651 47.0341 74.8287 47.0341 71.206C47.0341 70.8779 47.1047 70.5564 47.2403 70.2416L32.4265 74.5629C31.8378 74.7341 31.3968 75.2024 31.2402 75.7764L66.1045 91.8121L100.969 75.7764Z" fill="#EB7C1C"/>
<path d="M66.1039 91.8121L31.2396 75.7764C31.1988 75.9243 31.1768 76.08 31.1768 76.2391V77.4125C31.1768 78.0866 31.5615 78.6994 32.1646 78.9886L65.0841 94.7686C65.7301 95.0778 66.4798 95.0778 67.1258 94.7686L100.045 78.9886C100.648 78.6994 101.033 78.0866 101.033 77.4125V76.2391C101.033 76.08 101.011 75.9243 100.97 75.7764L66.1061 91.8121H66.1039Z" fill="#F39618"/>
</g>
<defs>
<clipPath id="clip0_5927_4966">
<rect width="132" height="95" fill="white"/>
</clipPath>
</defs>
</svg>
