<svg width="85" height="94" viewBox="0 0 85 94" fill="none" xmlns="http://www.w3.org/2000/svg">
<g clip-path="url(#clip0_6120_5252)">
<path d="M64 90.2123V11.0498C64 8.95792 62.3211 7.26213 60.2501 7.26213L3.74991 7.26213C1.67889 7.26213 0 8.95792 0 11.0498L0 90.2123C0 92.3042 1.67889 94 3.74991 94H60.2501C62.3211 94 64 92.3042 64 90.2123Z" fill="#2A6DCC"/>
<path d="M61.0215 90.9982L61.0215 10.2757L2.97688 10.2757L2.97688 90.9982H61.0215Z" fill="white"/>
<path d="M18.0706 34.2839H9.57622C9.25447 34.2839 8.99121 34.018 8.99121 33.693V25.1131C8.99121 24.7882 9.25447 24.5222 9.57622 24.5222H18.0706C18.3923 24.5222 18.6556 24.7882 18.6556 25.1131V33.693C18.6556 34.018 18.3923 34.2839 18.0706 34.2839ZM10.1612 33.1021H17.4855V25.704H10.1612V33.1021Z" fill="#DDDDDD"/>
<path d="M54.4231 26.8386H21.335C21.0133 26.8386 20.75 26.5727 20.75 26.2477C20.75 25.9227 21.0133 25.6568 21.335 25.6568H54.4231C54.7449 25.6568 55.0081 25.9227 55.0081 26.2477C55.0081 26.5727 54.7449 26.8386 54.4231 26.8386Z" fill="#B5B5B5"/>
<path d="M54.4408 29.994H21.4053C21.0836 29.994 20.8203 29.7281 20.8203 29.4031C20.8203 29.0781 21.0836 28.8122 21.4053 28.8122H54.4408C54.7625 28.8122 55.0258 29.0781 55.0258 29.4031C55.0258 29.7281 54.7625 29.994 54.4408 29.994Z" fill="#B5B5B5"/>
<path d="M47.3386 33.1553H21.3233C21.0015 33.1553 20.7383 32.8894 20.7383 32.5644C20.7383 32.2394 21.0015 31.9735 21.3233 31.9735H47.3386C47.6604 31.9735 47.9237 32.2394 47.9237 32.5644C47.9237 32.8894 47.6604 33.1553 47.3386 33.1553Z" fill="#B5B5B5"/>
<path d="M18.0706 49.8422H9.57622C9.25447 49.8422 8.99121 49.5763 8.99121 49.2513V40.6715C8.99121 40.3465 9.25447 40.0806 9.57622 40.0806H18.0706C18.3923 40.0806 18.6556 40.3465 18.6556 40.6715V49.2513C18.6556 49.5763 18.3923 49.8422 18.0706 49.8422ZM10.1612 48.6604H17.4855V41.2624H10.1612V48.6604Z" fill="#DDDDDD"/>
<path d="M54.4231 42.391H21.335C21.0133 42.391 20.75 42.1251 20.75 41.8001C20.75 41.4751 21.0133 41.2092 21.335 41.2092H54.4231C54.7449 41.2092 55.0081 41.4751 55.0081 41.8001C55.0081 42.1251 54.7449 42.391 54.4231 42.391Z" fill="#B5B5B5"/>
<path d="M54.4408 45.5523H21.4053C21.0836 45.5523 20.8203 45.2864 20.8203 44.9614C20.8203 44.6364 21.0836 44.3705 21.4053 44.3705H54.4408C54.7625 44.3705 55.0258 44.6364 55.0258 44.9614C55.0258 45.2864 54.7625 45.5523 54.4408 45.5523Z" fill="#B5B5B5"/>
<path d="M47.3386 48.7136H21.3233C21.0015 48.7136 20.7383 48.4477 20.7383 48.1227C20.7383 47.7977 21.0015 47.5318 21.3233 47.5318H47.3386C47.6604 47.5318 47.9237 47.7977 47.9237 48.1227C47.9237 48.4477 47.6604 48.7136 47.3386 48.7136Z" fill="#B5B5B5"/>
<path d="M18.0706 65.4005H9.57622C9.25447 65.4005 8.99121 65.1346 8.99121 64.8096V56.2298C8.99121 55.9048 9.25447 55.6389 9.57622 55.6389H18.0706C18.3923 55.6389 18.6556 55.9048 18.6556 56.2298V64.8096C18.6556 65.1346 18.3923 65.4005 18.0706 65.4005ZM10.1612 64.2187H17.4855V56.8207H10.1612V64.2187Z" fill="#DDDDDD"/>
<path d="M54.4231 57.9493H21.335C21.0133 57.9493 20.75 57.6834 20.75 57.3584C20.75 57.0334 21.0133 56.7675 21.335 56.7675H54.4231C54.7449 56.7675 55.0081 57.0334 55.0081 57.3584C55.0081 57.6834 54.7449 57.9493 54.4231 57.9493Z" fill="#B5B5B5"/>
<path d="M54.4408 61.1106H21.4053C21.0836 61.1106 20.8203 60.8447 20.8203 60.5197C20.8203 60.1947 21.0836 59.9288 21.4053 59.9288H54.4408C54.7625 59.9288 55.0258 60.1947 55.0258 60.5197C55.0258 60.8447 54.7625 61.1106 54.4408 61.1106Z" fill="#B5B5B5"/>
<path d="M47.3386 64.2719H21.3233C21.0015 64.2719 20.7383 64.006 20.7383 63.681C20.7383 63.356 21.0015 63.0901 21.3233 63.0901H47.3386C47.6604 63.0901 47.9237 63.356 47.9237 63.681C47.9237 64.006 47.6604 64.2719 47.3386 64.2719Z" fill="#B5B5B5"/>
<path d="M18.0706 80.9589H9.57622C9.25447 80.9589 8.99121 80.693 8.99121 80.368V71.7882C8.99121 71.4632 9.25447 71.1973 9.57622 71.1973H18.0706C18.3923 71.1973 18.6556 71.4632 18.6556 71.7882V80.368C18.6556 80.693 18.3923 80.9589 18.0706 80.9589ZM10.1612 79.7771H17.4855V72.3791H10.1612V79.7771Z" fill="#DDDDDD"/>
<path d="M54.4231 73.5077H21.335C21.0133 73.5077 20.75 73.2418 20.75 72.9168C20.75 72.5918 21.0133 72.3259 21.335 72.3259H54.4231C54.7449 72.3259 55.0081 72.5918 55.0081 72.9168C55.0081 73.2418 54.7449 73.5077 54.4231 73.5077Z" fill="#B5B5B5"/>
<path d="M54.4408 76.669H21.4053C21.0836 76.669 20.8203 76.4031 20.8203 76.0781C20.8203 75.7531 21.0836 75.4872 21.4053 75.4872H54.4408C54.7625 75.4872 55.0258 75.7531 55.0258 76.0781C55.0258 76.4031 54.7625 76.669 54.4408 76.669Z" fill="#B5B5B5"/>
<path d="M47.3386 79.8303H21.3233C21.0015 79.8303 20.7383 79.5644 20.7383 79.2394C20.7383 78.9144 21.0015 78.6485 21.3233 78.6485H47.3386C47.6604 78.6485 47.9237 78.9144 47.9237 79.2394C47.9237 79.5644 47.6604 79.8303 47.3386 79.8303Z" fill="#B5B5B5"/>
<path d="M12.1675 32.003C11.9628 32.003 11.7639 31.9321 11.6001 31.7903L7.11303 27.9376C6.74448 27.6186 6.69768 27.0631 7.01358 26.6909C7.32949 26.3186 7.8794 26.2713 8.24795 26.5904L12.1324 29.9231L19.8428 22.5191C20.1938 22.1823 20.7496 22.1941 21.0831 22.5487C21.4165 22.9032 21.4048 23.4646 21.0538 23.8014L12.7701 31.7548C12.6004 31.9144 12.384 31.9971 12.1675 31.9971V32.003Z" fill="#FF6980"/>
<path d="M12.1675 47.7445C11.9628 47.7445 11.7639 47.6736 11.6001 47.5318L7.11303 43.6792C6.74448 43.3601 6.69768 42.8046 7.01358 42.4324C7.32949 42.0601 7.8794 42.0128 8.24795 42.3319L12.1324 45.6646L19.8428 38.2606C20.1938 37.9238 20.7496 37.9356 21.0831 38.2902C21.4165 38.6447 21.4048 39.2061 21.0538 39.5429L12.7701 47.4964C12.6004 47.6559 12.384 47.7386 12.1675 47.7386V47.7445Z" fill="#FF6980"/>
<path d="M12.1675 62.8006C11.9628 62.8006 11.7639 62.7297 11.6001 62.5879L7.11303 58.7352C6.74448 58.4161 6.69768 57.8607 7.01358 57.4884C7.32949 57.1162 7.8794 57.0689 8.24795 57.388L12.1324 60.7206L19.8428 53.3167C20.1938 52.9799 20.7496 52.9917 21.0831 53.3462C21.4165 53.7008 21.4048 54.2621 21.0538 54.5989L12.7701 62.5524C12.6004 62.712 12.384 62.7947 12.1675 62.7947V62.8006Z" fill="#FF6980"/>
<path d="M46.3846 4.89854L40.0957 4.91036C39.9963 4.91036 39.9027 4.89263 39.8149 4.86309C39.6043 4.79809 39.4171 4.64446 39.306 4.43764L37.1882 0.472718C37.0303 0.177269 36.7261 0 36.3985 0L27.8047 0.011818C27.4888 0.011818 27.1963 0.177269 27.0383 0.454991L24.6924 4.48491C24.5871 4.674 24.4116 4.81582 24.2069 4.88081C24.1191 4.91036 24.0255 4.92809 23.9261 4.92809L17.6138 4.9399C17.1224 4.9399 16.7246 5.34171 16.7246 5.84398L16.7363 12.3675C16.7363 12.4207 16.7363 12.4738 16.748 12.527C16.8241 12.9525 17.1868 13.2657 17.6255 13.2657L46.3904 13.2243C46.8818 13.2243 47.2796 12.8225 47.2796 12.3202L47.2679 5.79671C47.2679 5.30035 46.8643 4.89854 46.3729 4.89854H46.3846ZM31.9933 1.57179C32.6193 1.57179 33.1341 2.08587 33.1341 2.72404C33.1341 3.3563 32.6252 3.87629 31.9992 3.87629C31.3674 3.87629 30.8584 3.36221 30.8584 2.72995C30.8584 2.09178 31.3615 1.5777 31.9933 1.5777V1.57179Z" fill="#D9D9D9"/>
<path d="M39.312 4.44958L37.2001 0.478745C37.0421 0.189205 36.7379 0.00602722 36.4103 0.00602722H27.8165C27.5006 0.00602722 27.2081 0.171479 27.0502 0.4492L24.6984 4.47912C24.5931 4.66821 24.4118 4.81003 24.2129 4.87502H39.8151C39.6045 4.80412 39.4173 4.65639 39.3061 4.44958H39.312ZM31.9994 3.87641C31.3676 3.87641 30.8586 3.36233 30.8586 2.73007C30.8586 2.0978 31.3734 1.57782 32.0052 1.57782C32.637 1.57782 33.146 2.0919 33.146 2.73007C33.146 3.36823 32.6312 3.88232 32.0052 3.88232L31.9994 3.87641Z" fill="#EDEDED"/>
<path d="M29.6422 0.395901C29.6422 0.395901 29.6305 0.389992 29.5954 0.372265C29.5311 0.336811 29.4726 0.307266 29.4199 0.28363C29.4316 0.289539 29.4433 0.295448 29.455 0.301357C29.5077 0.330902 29.572 0.360447 29.6364 0.395901H29.6422Z" fill="white"/>
<path d="M29.4432 0.324988C29.6362 0.425441 29.8819 0.519985 29.8293 0.49044C29.7649 0.460895 29.7064 0.425441 29.6421 0.395896C29.6421 0.395896 29.5134 0.348624 29.4256 0.307261C29.3496 0.271808 29.3554 0.277717 29.4373 0.324988H29.4432Z" fill="white"/>
<path d="M18.1116 12.4035C18.1116 12.4035 18.1526 12.3915 18.1292 12.3734C18.1058 12.3734 18.0882 12.3855 18.1116 12.4035Z" fill="#E8E8E8"/>
<path d="M17.9882 12.1086C18.0233 12.1086 18.1344 12.0965 18.1754 12.0785C18.2397 12.0483 18.2339 12.0483 18.1052 12.0604C17.9999 12.0724 17.9355 12.0965 17.9823 12.1086H17.9882Z" fill="#E8E8E8"/>
<path d="M18.6853 11.363C18.6853 11.363 18.656 11.369 18.6385 11.381C18.6151 11.3991 18.6209 11.3991 18.6385 11.3991C18.6736 11.3991 18.7087 11.363 18.6853 11.363Z" fill="#E8E8E8"/>
<path d="M18.7313 11.7358C18.7313 11.6996 18.6903 11.6996 18.6552 11.7358C18.6201 11.7719 18.6201 11.7719 18.6552 11.7719C18.702 11.7719 18.7313 11.7599 18.7313 11.7358Z" fill="#E8E8E8"/>
<path d="M18.8255 11.9302C18.8255 11.9302 18.8021 11.9066 18.7787 11.8948C18.7494 11.8829 18.7553 11.877 18.8079 11.8593C18.8606 11.8416 18.8664 11.8357 18.8372 11.8239C18.8196 11.818 18.8021 11.8002 18.8021 11.7943C18.8021 11.7825 18.7845 11.7766 18.7611 11.7943C18.7787 11.8061 18.7611 11.812 18.7143 11.818C18.6617 11.8239 18.65 11.8357 18.65 11.8593C18.65 11.9125 18.65 11.9361 18.5973 11.9243C18.5973 11.9007 18.5271 11.9066 18.5096 11.9302C18.5037 11.942 18.4569 11.9598 18.416 11.9716C18.3282 11.9952 18.3165 12.007 18.375 12.0189C18.3926 12.0189 18.4335 12.0189 18.4628 12.0189C18.492 12.0189 18.5154 12.0189 18.5739 12.0129C18.5739 12.0011 18.6792 11.9657 18.7085 11.9716C18.7319 11.9716 18.7319 12.007 18.7085 12.0248C18.6851 12.0425 18.7962 12.0661 18.8372 12.0543C18.8547 12.0543 18.8606 12.0366 18.8898 12.0129C18.9249 12.0129 18.9483 12.007 18.9717 11.9834C19.0185 11.942 18.9951 11.9243 18.9074 11.9361C18.8547 11.942 18.8313 11.9361 18.8255 11.9243V11.9302Z" fill="#E8E8E8"/>
<path d="M19.3278 12.3025C19.3278 12.3025 19.2927 12.2907 19.2576 12.3202C19.1991 12.3616 19.1816 12.4148 19.2225 12.4266C19.2518 12.4325 19.2459 12.4384 19.2108 12.4502C19.1465 12.4679 19.1523 12.4739 19.2225 12.4739C19.2576 12.4739 19.281 12.4798 19.3278 12.4857C19.3805 12.4561 19.3805 12.3202 19.3278 12.3025Z" fill="#E8E8E8"/>
<path d="M19.3161 12.6452C19.3161 12.6452 19.3278 12.6038 19.3454 12.592C19.3688 12.5743 19.3688 12.5684 19.281 12.5684C19.281 12.5802 19.2693 12.592 19.2518 12.592C19.2284 12.6098 19.2401 12.6216 19.2518 12.6334C19.2752 12.6748 19.322 12.6748 19.3161 12.6393V12.6452Z" fill="#E8E8E8"/>
<path d="M19.2167 12.1252C19.2167 12.1252 19.2167 12.1725 19.2811 12.1607C19.3337 12.1548 19.3688 12.0484 19.322 12.0189C19.3045 12.007 19.2986 11.9775 19.3103 11.9539C19.322 11.9184 19.3103 11.9066 19.2811 11.9007C19.246 11.8948 19.2401 11.883 19.246 11.8534C19.2577 11.818 19.2577 11.818 19.1992 11.8298C19.1114 11.8534 19.0997 11.8652 19.1524 11.877C19.1933 11.8889 19.1933 11.8889 19.1524 11.9007C19.1056 11.9184 19.0997 11.9243 19.1407 11.9361C19.1816 11.9539 19.2401 12.0898 19.2109 12.1134L19.2167 12.1252Z" fill="#E8E8E8"/>
<path d="M19.3282 12.8878C19.3282 12.8878 19.3574 12.8758 19.3574 12.8698C19.2931 12.8818 19.2931 12.8939 19.3282 12.8878Z" fill="#E8E8E8"/>
<path d="M19.3282 13.0116C19.2814 13.0293 19.2756 13.0647 19.3224 13.0884C19.3926 13.1238 19.4335 13.1002 19.3867 13.047C19.3692 13.0234 19.3399 13.0057 19.3282 13.0116Z" fill="#E8E8E8"/>
<path d="M18.1348 11.9901C18.1348 11.9901 18.1348 12.0142 18.1699 12.0021C18.2342 11.978 18.2459 11.9418 18.1874 11.9539C18.1582 11.9539 18.1406 11.972 18.1348 11.9901Z" fill="#E8E8E8"/>
<path d="M19.3339 12.8058C19.3514 12.7576 19.3456 12.7455 19.2929 12.7576C19.2578 12.7636 19.2578 12.8239 19.2929 12.842C19.3105 12.848 19.3222 12.842 19.3339 12.8058Z" fill="#E8E8E8"/>
<path d="M18.427 12.6041L18.4679 12.592C18.4036 12.592 18.3802 12.6041 18.427 12.6041Z" fill="#E8E8E8"/>
<path d="M18.7379 12.1018C18.7379 12.1018 18.6911 12.1199 18.6501 12.1259C18.5156 12.1561 18.5682 12.1681 18.7262 12.144C18.8607 12.1259 18.8724 12.1259 18.8724 12.144C18.8724 12.1561 18.9017 12.1621 18.9309 12.1681C19.0187 12.1681 19.007 12.1501 18.8958 12.1139C18.8022 12.0838 18.7671 12.0838 18.7379 12.1018Z" fill="#E8E8E8"/>
<path d="M18.3926 12.5095C18.4394 12.5276 18.492 12.5095 18.492 12.5035C18.492 12.4914 18.4101 12.5035 18.3926 12.5095Z" fill="#E8E8E8"/>
<path d="M18.375 11.8652C18.375 11.8652 18.4803 11.8416 18.4979 11.8534C18.5271 11.8652 18.5739 11.8298 18.5564 11.812C18.5447 11.8002 18.5564 11.7884 18.5681 11.7766C18.5915 11.7648 18.5915 11.7589 18.5447 11.753C18.4745 11.7411 18.3809 11.753 18.3692 11.7766C18.3516 11.8002 18.1703 11.818 18.1293 11.8061C18.065 11.8357 18.0591 11.8593 18.1176 11.8593C18.141 11.8593 18.1703 11.8593 18.1761 11.8475C18.2112 11.8239 18.2756 11.8298 18.2931 11.8534C18.3107 11.877 18.3692 11.883 18.3633 11.8652H18.375Z" fill="#E8E8E8"/>
<path d="M18.6846 12.8048C18.6846 12.7693 18.6085 12.7575 18.5559 12.787C18.4798 12.8284 18.4564 12.852 18.4915 12.8579C18.5793 12.8816 18.6846 12.8579 18.6846 12.8048Z" fill="#E8E8E8"/>
<path d="M18.7664 12.6696C18.8541 12.6876 18.9126 12.6937 18.9126 12.6696C18.9126 12.6515 18.8307 12.6334 18.7079 12.6334C18.6611 12.6334 18.6786 12.6454 18.7664 12.6635V12.6696Z" fill="#E8E8E8"/>
<path d="M18.9308 12.823C18.9308 12.823 18.9776 12.817 18.9776 12.805C18.9776 12.7869 18.9132 12.7929 18.9308 12.823Z" fill="#E8E8E8"/>
<path d="M18.5147 13.1417C18.4211 13.1417 18.4094 13.1537 18.4913 13.1658C18.5615 13.1778 18.696 13.1598 18.6434 13.1357C18.6141 13.1357 18.5556 13.1417 18.5147 13.1417Z" fill="#E8E8E8"/>
<path d="M18.5387 12.9703C18.5095 12.9824 18.5095 12.9884 18.568 13.0065C18.6148 13.0186 18.6908 13.0065 18.6908 12.9764C18.6908 12.9643 18.5621 12.9583 18.5387 12.9703Z" fill="#E8E8E8"/>
<path d="M19.3514 12.9408C19.3514 12.9408 19.2871 12.9227 19.2754 12.9408C19.2754 12.9469 19.2871 12.9529 19.3163 12.9529C19.3456 12.9529 19.3573 12.9469 19.3514 12.9348V12.9408Z" fill="#E8E8E8"/>
<path d="M17.6787 13.1772C17.6787 13.1772 17.6963 13.1892 17.7197 13.1892C17.7782 13.1892 17.8601 13.1892 17.8367 13.1772C17.8133 13.1651 17.6787 13.1711 17.6787 13.1772Z" fill="#E8E8E8"/>
<path d="M19.0068 13.254H19.0946C19.0712 13.2479 19.0361 13.2419 19.0068 13.254Z" fill="#E8E8E8"/>
<path d="M18.3515 11.7414C18.3515 11.7414 18.3047 11.7173 18.3047 11.7354C18.3047 11.7414 18.3281 11.7474 18.3515 11.7414Z" fill="#E8E8E8"/>
<path d="M19.2058 11.3866C19.1766 11.3926 19.1707 11.477 19.2058 11.471C19.2058 11.471 19.2409 11.459 19.2526 11.4529C19.2877 11.4348 19.2468 11.3746 19.2058 11.3866Z" fill="#E8E8E8"/>
<path d="M19.176 11.6422C19.2111 11.6543 19.2169 11.6483 19.2345 11.6181C19.2579 11.5639 19.2228 11.5458 19.1701 11.582C19.1233 11.6181 19.1233 11.6302 19.176 11.6422Z" fill="#E8E8E8"/>
<path d="M19.1701 11.2512C19.1701 11.2512 19.1993 11.2331 19.2052 11.2271C19.135 11.2391 19.1291 11.2692 19.1701 11.2512Z" fill="#E8E8E8"/>
<path d="M47.2855 11.298V12.3202C47.2855 12.8166 46.8877 13.2243 46.3963 13.2243L17.6314 13.2656C17.1927 13.2656 16.8241 12.9466 16.7539 12.527V11.3452L47.2914 11.298H47.2855Z" fill="#C9C9C9"/>
</g>
<g clip-path="url(#clip1_6120_5252)">
<path d="M44.6513 42.7898L43.9994 39L47.5576 40.6674C46.72 42.1418 45.4601 42.6311 44.6527 42.7911L44.6513 42.7898Z" fill="#323631"/>
<path d="M54.6357 49.2757L51.4489 51.5897L45.833 49.6645L44.6502 42.7897C45.4589 42.6297 46.7174 42.1405 47.5551 40.6661L54.0622 43.7154L54.6344 49.2757L54.6357 49.2757Z" fill="#F2DB94"/>
<path d="M78.851 89.2863L49.3909 49.8946L49.516 49.9025L49.9864 46.6602L53.5598 47.1388L82.8838 86.3587L78.851 89.2863Z" fill="#FFDA45"/>
<path d="M76.7018 90.8479L45.8345 49.6645L49.3914 49.8945L78.8516 89.2863L76.7018 90.8479Z" fill="#FAC420"/>
<path d="M82.8847 86.3587L53.5607 47.1388L53.5675 47.1402L54.0641 43.7154L84.9189 84.8817L82.8847 86.3587Z" fill="#FAC420"/>
<path d="M81.5365 88.7759C83.8059 87.1283 85.3285 85.3907 84.9393 84.8936C84.9338 84.8869 84.9283 84.8817 84.9228 84.8764L84.9255 84.8764L82.4855 81.7689C80.9368 82.6853 76.7748 85.2651 74.3719 87.8648L76.7087 90.84L76.7115 90.84C76.7115 90.84 76.7197 90.8532 76.7239 90.8585C77.1145 91.3544 79.2698 90.4222 81.5379 88.7745L81.5365 88.7759Z" fill="#F29694"/>
<path d="M81.5925 80.6357C80.3423 81.3643 76.0083 83.9812 73.4266 86.6655L74.3688 87.8661C76.7717 85.2664 80.9351 82.6866 82.4824 81.7703L81.5911 80.6357L81.5925 80.6357Z" fill="#F5EDD2"/>
<path d="M84.9334 84.9002C84.5428 84.4043 82.3875 85.3365 80.1194 86.9841C77.85 88.6317 76.3274 90.3693 76.7166 90.8664C77.1073 91.3623 79.2625 90.4301 81.5306 88.7825C83.8001 87.1349 85.3227 85.3974 84.9334 84.9002Z" fill="#F2C3C2"/>
</g>
<defs>
<clipPath id="clip0_6120_5252">
<rect width="64" height="94" fill="white"/>
</clipPath>
<clipPath id="clip1_6120_5252">
<rect width="52" height="41" fill="white" transform="translate(85 39) rotate(90)"/>
</clipPath>
</defs>
</svg>
