<svg width="32" height="39" viewBox="0 0 32 39" fill="none" xmlns="http://www.w3.org/2000/svg">
<path d="M21.7631 6.24977C20.3671 7.88716 18.1336 9.17863 15.9001 8.99413C15.6209 6.78019 16.7144 4.42788 17.994 2.97498C19.39 1.29147 21.8329 0.0922475 23.8105 0C24.0431 2.30619 23.1358 4.56625 21.7631 6.24977ZM23.7872 9.43231C20.5533 9.24781 17.7846 11.2542 16.2491 11.2542C14.6903 11.2542 12.3405 9.52456 9.78123 9.57068C6.45423 9.6168 3.35988 11.4848 1.66149 14.4598C-1.82837 20.4098 0.754123 29.2194 4.12765 34.0624C5.77952 36.4608 7.75711 39.0899 10.3629 38.9976C12.829 38.9054 13.8062 37.4064 16.7842 37.4064C19.7855 37.4064 20.6463 38.9976 23.2521 38.9515C25.9509 38.9054 27.6493 36.5531 29.3012 34.1546C31.1857 31.4333 31.9535 28.7812 32 28.6429C31.9535 28.5967 26.7885 26.6365 26.7419 20.7326C26.6954 15.7974 30.8134 13.4451 30.9996 13.3067C28.673 9.89355 25.0435 9.52456 23.7872 9.43231Z" fill="white"/>
</svg>
