<svg width="32" height="33" viewBox="0 0 32 33" fill="none" xmlns="http://www.w3.org/2000/svg">
<g clip-path="url(#clip0_6120_5347)">
<path d="M15.9998 32.9995C24.8362 32.9995 31.9995 25.6123 31.9995 16.4997C31.9995 7.38719 24.8362 0 15.9998 0C7.16333 0 0 7.38719 0 16.4997C0 25.6123 7.16333 32.9995 15.9998 32.9995Z" fill="white"/>
<path d="M11.8116 14.0293C11.8116 14.0293 12.5563 18.0741 17.7691 21.2994C17.7691 21.2994 18.9109 19.4562 20.7478 20.0707L24.2229 21.2994C24.2229 21.2994 26.2086 22.0673 25.0667 24.2178C23.9249 26.3683 22.8822 26.6239 22.8822 26.6239C22.8822 26.6239 20.3006 28.2621 15.6838 25.4976C11.4041 22.935 5.20462 15.0934 6.85206 9.2312C7.10193 8.34275 7.64142 7.57732 8.35616 7.01895C9.31832 6.26668 10.8121 5.41468 11.9343 6.21808C12.3192 6.49347 12.5607 6.93592 12.6618 7.40773L13.4993 11.3159C13.4993 11.3159 14.0952 12.8007 11.8111 14.0293H11.8116Z" fill="#141C27"/>
</g>
<defs>
<clipPath id="clip0_6120_5347">
<rect width="32" height="33" fill="white"/>
</clipPath>
</defs>
</svg>
