<svg width="164" height="32" viewBox="0 0 164 32" fill="none" xmlns="http://www.w3.org/2000/svg">
<path d="M52.4131 8.84257C47.8696 8.84257 44.1579 12.2011 44.1579 16.8349C44.1579 21.4312 47.8696 24.825 52.4131 24.825C56.9662 24.825 60.6779 21.4312 60.6779 16.8349C60.6779 12.2011 56.9662 8.84257 52.4131 8.84257ZM52.4131 21.6778C49.9201 21.6778 47.7753 19.6791 47.7753 16.8349C47.7753 13.9532 49.9201 11.9897 52.4131 11.9897C54.9061 11.9897 57.0605 13.9532 57.0605 16.8349C57.0605 19.6791 54.9061 21.6778 52.4131 21.6778ZM34.4012 8.84257C29.8481 8.84257 26.1461 12.2011 26.1461 16.8349C26.1461 21.4312 29.8481 24.825 34.4012 24.825C38.9519 24.825 42.6563 21.4312 42.6563 16.8349C42.6563 12.2011 38.9519 8.84257 34.4012 8.84257ZM34.4012 21.6778C31.9058 21.6778 29.7538 19.6791 29.7538 16.8349C29.7538 13.9532 31.9058 11.9897 34.4012 11.9897C36.8942 11.9897 39.039 13.9532 39.039 16.8349C39.039 19.6791 36.8942 21.6778 34.4012 21.6778ZM12.9679 11.2922V14.6883H21.3173C21.0731 16.586 20.4202 17.9811 19.4191 18.9534C18.2005 20.1277 16.3023 21.4312 12.9679 21.4312C7.82956 21.4312 3.80596 17.4033 3.80596 12.4125C3.80596 7.42165 7.82956 3.39377 12.9679 3.39377C15.7462 3.39377 17.7676 4.4483 19.2596 5.8152L21.7235 3.42195C19.6368 1.48668 16.8609 -6.70904e-07 12.9679 -6.70904e-07C5.92174 -6.70904e-07 0 5.56859 0 12.4125C0 19.2564 5.92174 24.825 12.9679 24.825C16.7762 24.825 19.6368 23.6131 21.8855 21.3396C24.1899 19.1014 24.9081 15.9542 24.9081 13.413C24.9081 12.6239 24.8404 11.8981 24.7195 11.2922H12.9679ZM100.612 13.925C99.9321 12.1377 97.8356 8.84257 93.5654 8.84257C89.3339 8.84257 85.8108 12.0813 85.8108 16.8349C85.8108 21.3114 89.2976 24.825 93.9716 24.825C97.751 24.825 99.9321 22.5867 100.829 21.2832L98.0243 19.4677C97.0885 20.7971 95.8142 21.6778 93.9716 21.6778C92.1412 21.6778 90.8282 20.8628 89.9867 19.2564L100.991 14.8339L100.612 13.925ZM89.3919 16.586C89.2976 13.5046 91.8559 11.9263 93.6887 11.9263C95.125 11.9263 96.3437 12.6239 96.75 13.622L89.3919 16.586ZM80.4476 24.3388H84.065V0.852553H80.4476V24.3388ZM74.5235 10.6228H74.4026C73.5901 9.68807 72.0402 8.84257 70.0767 8.84257C65.9564 8.84257 62.1891 12.3561 62.1891 16.8608C62.1891 21.3396 65.9564 24.825 70.0767 24.825C72.0402 24.825 73.5901 23.9724 74.4026 23.0095H74.5235V24.1556C74.5235 27.2112 72.843 28.8528 70.1323 28.8528C67.9223 28.8528 66.5513 27.3028 65.9854 25.9993L62.8396 27.2746C63.7463 29.393 66.1474 32 70.1323 32C74.3736 32 77.9522 29.5762 77.9522 23.6788V9.32873H74.5235V10.6228ZM70.3862 21.6778C67.8933 21.6778 65.8065 19.6509 65.8065 16.8608C65.8065 14.0448 67.8933 11.9897 70.3862 11.9897C72.843 11.9897 74.7798 14.0448 74.7798 16.8608C74.7798 19.6509 72.843 21.6778 70.3862 21.6778ZM117.547 0.852553H108.896V24.3388H112.503V15.4399H117.547C121.554 15.4399 125.483 12.6239 125.483 8.14503C125.483 3.66855 121.544 0.852553 117.547 0.852553ZM117.642 12.1729H112.503V4.11949H117.642C120.335 4.11949 121.873 6.29196 121.873 8.14503C121.873 9.96286 120.335 12.1729 117.642 12.1729ZM139.943 8.79795C137.336 8.79795 134.626 9.91589 133.511 12.3937L136.713 13.6972C137.402 12.3937 138.669 11.9709 140.008 11.9709C141.88 11.9709 143.778 13.063 143.807 14.9913V15.2379C143.154 14.8715 141.757 14.329 140.037 14.329C136.589 14.329 133.076 16.1726 133.076 19.6134C133.076 22.7605 135.9 24.7874 139.075 24.7874C141.503 24.7874 142.842 23.7235 143.684 22.4857H143.807V24.3012H147.291V15.2919C147.291 11.1278 144.09 8.79795 139.943 8.79795ZM139.508 21.6684C138.328 21.6684 136.684 21.1 136.684 19.6791C136.684 17.8613 138.734 17.1637 140.509 17.1637C142.098 17.1637 142.842 17.5043 143.807 17.9529C143.524 20.1277 141.597 21.6684 139.508 21.6684ZM159.986 9.31229L155.839 19.4936H155.716L151.429 9.31229H147.538L153.98 23.5403L150.304 31.4575H154.074L164 9.31229H159.986ZM127.466 24.3388H131.083V0.852553H127.466V24.3388Z" fill="white"/>
</svg>
