<svg width="84" height="15" viewBox="0 0 84 15" fill="none" xmlns="http://www.w3.org/2000/svg">
<g clip-path="url(#clip0_5927_4548)">
<path d="M4.43032 9.49442C3.77067 9.49442 3.17566 9.39718 2.64749 9.20734C2.11933 9.0175 1.64911 8.7281 1.24129 8.33683C0.820099 7.97104 0.508105 7.50337 0.305309 6.93616C0.100284 6.36662 0 5.7068 0 4.94974C0 4.59552 0.0267424 4.25519 0.0779986 3.93106C0.129255 3.60694 0.21171 3.30133 0.327594 3.01888C0.430106 2.74801 0.554904 2.49334 0.704216 2.25719C0.851299 2.02104 1.02958 1.80342 1.23461 1.602C1.42849 1.41447 1.64466 1.24546 1.88311 1.09729C2.12156 0.94912 2.37784 0.8241 2.65195 0.717603C2.91269 0.62268 3.19126 0.55091 3.48765 0.497661C3.78404 0.444412 4.10272 0.418945 4.44369 0.418945C4.76237 0.418945 5.07214 0.446727 5.37299 0.499976C5.67384 0.553225 5.96132 0.627311 6.23543 0.722233C6.49617 0.828731 6.74353 0.956065 6.97753 1.10424C7.2093 1.25241 7.42992 1.42141 7.63272 1.61126C7.81323 1.81268 7.9826 2.03031 8.13414 2.26877C8.2879 2.50492 8.42607 2.75958 8.55087 3.03277C8.65338 3.31754 8.73138 3.62083 8.78932 3.94727C8.84504 4.27371 8.87401 4.61172 8.87401 4.96594C8.87401 5.72301 8.76704 6.38514 8.55533 6.95005C8.34362 7.51726 8.03385 7.98261 7.6238 8.34841C7.20261 8.73736 6.72793 9.02676 6.19754 9.21428C5.66938 9.40181 5.07882 9.49673 4.43032 9.49442ZM3.73056 10.1311V12.1708L13.233 12.1847L13.2286 14.8448L0.737644 14.8263L0.744329 10.1288L3.73056 10.1334V10.1311ZM4.43478 6.57036C4.50386 6.57036 4.57963 6.56573 4.66431 6.55184C4.749 6.54026 4.8426 6.51711 4.94511 6.48238C5.02534 6.47081 5.10779 6.44071 5.19248 6.39441C5.27716 6.3481 5.35962 6.28791 5.43984 6.21845C5.50893 6.17215 5.57355 6.10269 5.63595 6.01472C5.69835 5.92674 5.75852 5.8295 5.81646 5.723C5.86104 5.62808 5.89892 5.51927 5.92789 5.39425C5.95686 5.26923 5.97023 5.12569 5.97023 4.959C5.97023 4.81777 5.95686 4.68349 5.92789 4.56079C5.89892 4.43577 5.86326 4.32233 5.81646 4.21583C5.75852 4.12091 5.70058 4.03293 5.63818 3.94958C5.57578 3.86624 5.51116 3.78984 5.44207 3.71807C5.36184 3.67176 5.27939 3.62314 5.1947 3.57684C5.11002 3.53054 5.02757 3.48886 4.94734 3.45182C4.84483 3.42867 4.75123 3.40783 4.66654 3.38931C4.58186 3.37079 4.50386 3.36153 4.437 3.36153C4.34563 3.36153 4.25426 3.37079 4.1629 3.387C4.07153 3.40552 3.98684 3.42635 3.90661 3.44951C3.8041 3.48423 3.71273 3.52591 3.6325 3.57221C3.55228 3.61851 3.47874 3.66713 3.40965 3.71344C3.32942 3.78521 3.25811 3.86161 3.19571 3.94264C3.13331 4.02598 3.08429 4.11396 3.05086 4.20888C2.99292 4.31538 2.9528 4.43114 2.93052 4.55384C2.90823 4.67886 2.89709 4.81083 2.89486 4.95205C2.89486 5.11874 2.906 5.26229 2.92829 5.38731C2.95057 5.51232 2.99069 5.62114 3.0464 5.71606C3.07983 5.82256 3.12886 5.9198 3.19126 6.00777C3.25365 6.09575 3.32497 6.1652 3.40519 6.21151C3.47428 6.28328 3.54782 6.34116 3.62582 6.38977C3.70605 6.43839 3.79742 6.46618 3.8977 6.47775C3.97793 6.51248 4.06261 6.53795 4.15398 6.54952C4.24535 6.5611 4.33672 6.56804 4.42586 6.56804L4.43478 6.57036ZM15.0025 3.41246L14.998 6.48007C14.9646 6.48007 14.9267 6.48238 14.8866 6.48933C14.8465 6.49627 14.8041 6.49859 14.7596 6.49859C14.715 6.49859 14.6704 6.49859 14.6325 6.49859C14.5924 6.49859 14.5501 6.49859 14.5055 6.49859C14.403 6.51016 14.3005 6.52174 14.198 6.53332C14.0955 6.54489 13.9996 6.55647 13.9083 6.56804C13.8503 6.57962 13.7968 6.58888 13.7456 6.59351C13.6943 6.60046 13.6453 6.6074 13.6007 6.61898C13.5562 6.63055 13.5094 6.63981 13.4648 6.64444C13.4202 6.65139 13.3801 6.6537 13.3444 6.6537C13.2754 6.67686 13.2219 6.69769 13.1818 6.71621C13.1416 6.73474 13.106 6.74863 13.0703 6.7602L13.0659 10.571L10.0796 10.5663L10.093 0.604159L13.0792 0.608789L13.0748 3.81762C13.1662 3.75974 13.2687 3.70649 13.3823 3.65787C13.496 3.61157 13.6275 3.56295 13.7745 3.51665C13.9216 3.48192 14.0999 3.45414 14.3027 3.43793C14.5077 3.42172 14.7395 3.41246 15.0025 3.41246Z" fill="white"/>
<path d="M23.4864 0.76636V2.30827C23.4485 2.75741 23.375 3.18803 23.2613 3.60245C23.1477 4.01686 23.005 4.41739 22.8334 4.80634C22.7755 4.91283 22.722 5.01239 22.6708 5.10731C22.6195 5.20223 22.5705 5.30178 22.5259 5.40828C22.595 5.46848 22.6685 5.52635 22.7465 5.58655C22.8268 5.64674 22.9048 5.70462 22.985 5.76482C23.3259 6.06116 23.6491 6.37371 23.9566 6.70478C24.2642 7.03585 24.5539 7.37849 24.8257 7.73503L22.8424 9.91129C22.5705 9.56865 22.2941 9.23989 22.0156 8.92734C21.737 8.6148 21.4629 8.31382 21.1888 8.03137C21.1442 7.99664 21.0996 7.9596 21.0618 7.92487C21.0216 7.89015 20.986 7.8531 20.9503 7.81838C20.9058 7.78365 20.8612 7.74661 20.8233 7.71188C20.7832 7.67715 20.7475 7.64011 20.7119 7.60538C20.4957 7.78133 20.2773 7.95266 20.0545 8.11935C19.8316 8.28373 19.6021 8.43884 19.3636 8.58007C18.9647 8.82779 18.5613 9.0431 18.1513 9.226C17.7412 9.4089 17.3267 9.56402 16.9056 9.69367L15.4414 7.47573C16.0565 7.22801 16.6248 6.96408 17.1485 6.68163C17.6722 6.39918 18.1558 6.08663 18.5992 5.74398C19.0204 5.42449 19.3859 5.08647 19.6934 4.72531C20.001 4.36645 20.2506 3.9914 20.4467 3.60013L16.0431 3.59319L16.0476 0.757099L23.4864 0.768675V0.76636ZM19.5998 10.1567V12.1964L29.2717 12.2103L29.2672 14.8704L16.6047 14.8519L16.6114 10.1544L19.5976 10.159L19.5998 10.1567ZM26.1072 5.76945C26.0737 5.7926 26.0314 5.80881 25.9801 5.81344C25.9289 5.82038 25.8687 5.8227 25.8018 5.8227C25.7216 5.84585 25.6414 5.86205 25.5634 5.86669C25.4832 5.87363 25.4096 5.87595 25.3405 5.87595C25.2492 5.88752 25.1623 5.89447 25.0753 5.89215C24.9884 5.88984 24.9127 5.89215 24.8458 5.89215C24.7544 5.90373 24.6742 5.91067 24.6074 5.91067C24.5383 5.91067 24.4826 5.91067 24.4358 5.91067H24.0614L24.0658 3.07459H26.1138L26.1183 0.63208L29.1045 0.63671L29.0912 10.5989L26.1049 10.5943L26.1116 5.77176L26.1072 5.76945Z" fill="white"/>
<path d="M37.8315 4.97298L30.7158 4.9614L30.7203 2.31979H32.9555L32.9577 0.196777L35.603 0.201408V2.32905L37.836 2.33368L37.8315 4.97529V4.97298ZM34.2859 14.4513C33.7177 14.4513 33.2162 14.361 32.7839 14.1827C32.3516 14.0045 31.9928 13.7336 31.7097 13.3655C31.4022 13.0113 31.1794 12.5482 31.0367 11.981C30.8941 11.4138 30.825 10.7401 30.8272 9.95986C30.8272 9.21437 30.9052 8.56612 31.0612 8.01048C31.215 7.45484 31.4512 6.98255 31.7721 6.5936C32.0797 6.2278 32.4452 5.94998 32.8664 5.76245C33.2875 5.57492 33.7645 5.48 34.2993 5.48C34.823 5.48 35.2954 5.57724 35.7144 5.76477C36.1356 5.95461 36.5033 6.23243 36.822 6.60054C37.1295 6.99181 37.3613 7.4641 37.5195 8.01974C37.6777 8.57539 37.7557 9.22595 37.7557 9.96912C37.7557 10.7493 37.6777 11.423 37.5218 11.9903C37.368 12.5575 37.1474 13.0182 36.8621 13.3724C36.5546 13.7382 36.1846 14.0091 35.7523 14.185C35.32 14.361 34.8297 14.449 34.2837 14.449L34.2859 14.4513ZM34.2882 11.7912C34.4018 11.7912 34.5066 11.7564 34.6046 11.6847C34.7004 11.6129 34.7963 11.5018 34.8876 11.349C34.9567 11.2077 35.0102 11.0202 35.0503 10.791C35.0904 10.5595 35.1105 10.2863 35.1105 9.9668C35.1105 9.67278 35.0904 9.40885 35.0525 9.17733C35.0124 8.94581 34.9589 8.74902 34.8921 8.58233C34.8007 8.4411 34.7071 8.33229 34.6113 8.25358C34.5155 8.17718 34.4085 8.13782 34.2948 8.13782C34.1589 8.13782 34.0408 8.17486 33.945 8.25358C33.8491 8.32998 33.7645 8.43879 33.6976 8.58002C33.6174 8.74671 33.5594 8.9435 33.526 9.1727C33.4926 9.4019 33.4747 9.66583 33.4747 9.96217C33.4747 10.2817 33.4903 10.5549 33.5238 10.7864C33.5572 11.0179 33.6196 11.2031 33.711 11.3443C33.7801 11.4971 33.8603 11.6106 33.9583 11.6823C34.0542 11.7541 34.1656 11.7888 34.2904 11.7888L34.2882 11.7912ZM42.3644 8.39943C42.2173 8.43416 42.0635 8.46889 41.903 8.50593C41.7426 8.54066 41.5777 8.55918 41.4083 8.55918L41.3994 14.9954L38.6873 14.9907L38.7073 0.648236L41.4195 0.652866L41.4128 5.54482H42.3688L42.3755 0.652866L45.072 0.657497L45.052 15L42.3554 14.9954L42.3644 8.40175V8.39943Z" fill="white"/>
<path d="M54.4277 9.17026L54.421 14.3817L51.2498 14.3771L51.2565 9.16563L46.8262 0.942139L50.4141 0.946769L52.8276 6.05404L55.2567 0.953714L58.8446 0.958345L54.4255 9.16794L54.4277 9.17026Z" fill="white"/>
<path d="M65.2756 14.743C64.2995 14.743 63.4281 14.5763 62.6638 14.2499C61.8971 13.9234 61.2531 13.4581 60.7316 12.8538C60.199 12.2496 59.7956 11.511 59.5238 10.6359C59.2519 9.76076 59.1182 8.77913 59.1182 7.69331C59.1182 6.6075 59.2563 5.63049 59.5327 4.7623C59.8068 3.89411 60.2124 3.15789 60.7472 2.55594C61.2709 1.954 61.9172 1.48633 62.6838 1.15527C63.4504 0.824196 64.3218 0.659818 65.2979 0.662133C66.274 0.662133 67.1476 0.831141 67.9186 1.16453C68.6897 1.49791 69.3427 1.96558 69.8775 2.56984C70.4101 3.1741 70.8202 3.91032 71.1032 4.78082C71.3862 5.64901 71.5266 6.62833 71.5266 7.71415C71.5266 8.79996 71.3818 9.77928 71.0943 10.6544C70.809 11.5296 70.399 12.2681 69.8619 12.87C69.3271 13.472 68.6719 13.935 67.9008 14.2615C67.1275 14.5856 66.2539 14.7476 65.2778 14.7453L65.2756 14.743ZM65.3135 11.6661C66.2183 11.6661 66.9581 11.3119 67.5286 10.6012C68.0991 9.89041 68.3844 8.92498 68.3866 7.7072C68.3866 7.13999 68.3109 6.61444 68.1526 6.13289C67.9966 5.65133 67.7849 5.22765 67.5175 4.86417C67.2501 4.51458 66.9292 4.23907 66.5525 4.03997C66.1759 3.84087 65.7659 3.739 65.3246 3.739C64.8722 3.739 64.4555 3.83623 64.0789 4.03534C63.7 4.23444 63.3791 4.50763 63.1117 4.85723C62.8443 5.21839 62.6348 5.64207 62.4832 6.12363C62.3317 6.60518 62.2559 7.13072 62.2537 7.69794C62.2537 8.91572 62.5323 9.88346 63.0939 10.5942C63.6555 11.3073 64.3953 11.6638 65.3135 11.6661Z" fill="white"/>
<path d="M78.8253 11.8815C79.3824 11.8815 79.8682 11.7033 80.2805 11.3467C80.6928 10.9902 80.8978 10.4322 80.8978 9.67287V3.98218H83.9977V9.94375C83.9977 10.7402 83.8707 11.444 83.6144 12.0529C83.3581 12.6618 83.0038 13.178 82.5514 13.5994C82.099 14.0092 81.5552 14.3241 80.9223 14.5394C80.2894 14.757 79.5897 14.8658 78.8231 14.8658C78.0565 14.8658 77.3589 14.757 76.7327 14.5394C76.1065 14.3217 75.5649 14.0092 75.1126 13.5994C74.6713 13.178 74.3281 12.6618 74.0852 12.0529C73.8423 11.444 73.7197 10.7402 73.7197 9.94375V3.98218H76.8196V9.67287C76.8196 10.4322 77.0135 10.9902 77.4035 11.3467C77.7935 11.7033 78.2659 11.8815 78.8231 11.8815H78.8253Z" fill="white"/>
<path d="M75.1508 2.84766C75.9078 2.84766 76.5214 2.21019 76.5214 1.42383C76.5214 0.637471 75.9078 0 75.1508 0C74.3939 0 73.7803 0.637471 73.7803 1.42383C73.7803 2.21019 74.3939 2.84766 75.1508 2.84766Z" fill="white"/>
<path d="M82.3422 2.84766C83.0992 2.84766 83.7128 2.21019 83.7128 1.42383C83.7128 0.637471 83.0992 0 82.3422 0C81.5853 0 80.9717 0.637471 80.9717 1.42383C80.9717 2.21019 81.5853 2.84766 82.3422 2.84766Z" fill="white"/>
</g>
<defs>
<clipPath id="clip0_5927_4548">
<rect width="84" height="15" fill="white"/>
</clipPath>
</defs>
</svg>
